<svg preserveAspectRatio="none" width="100%" height="100%" overflow="visible" style="display: block;" viewBox="0 0 42 42" fill="none" xmlns="http://www.w3.org/2000/svg">
<g id="Group">
<g id="Group_2">
<path id="Path" d="M26.0379 17.7936C28.7626 20.5184 28.7626 24.9361 26.0379 27.6609C23.3131 30.3857 18.8953 30.3857 16.1705 27.6609C13.4458 24.9361 13.4458 20.5184 16.1705 17.7936C18.8953 15.0688 23.3131 15.0688 26.0379 17.7936" stroke="var(--stroke-0, #36515C)" stroke-width="2.625" stroke-linecap="round" stroke-linejoin="round"/>
<path id="Path_2" fill-rule="evenodd" clip-rule="evenodd" d="M36.75 15.75V31.5C36.75 33.4338 35.1838 35 33.25 35H8.75C6.81625 35 5.25 33.4338 5.25 31.5V15.75C5.25 13.8163 6.81625 12.25 8.75 12.25H12.25L14.8085 7.868C15.1217 7.33075 15.6975 7 16.3205 7H25.6025C26.2168 7 26.7855 7.322 27.1023 7.847L29.75 12.25H33.25C35.1838 12.25 36.75 13.8163 36.75 15.75Z" stroke="var(--stroke-0, #36515C)" stroke-width="2.625" stroke-linecap="round" stroke-linejoin="round"/>
</g>
<g id="Path_3">
</g>
</g>
</svg>
