<svg preserveAspectRatio="none" width="100%" height="100%" overflow="visible" style="display: block;" viewBox="0 0 42 42" fill="none" xmlns="http://www.w3.org/2000/svg">
<g id="Group">
<g id="Path">
</g>
<path id="Path_2" d="M25.375 27.9999L23.6705 26.4424L21.875 27.9999" stroke="var(--stroke-0, #36515C)" stroke-width="2.625" stroke-linecap="round" stroke-linejoin="round"/>
<path id="Path_3" d="M28.875 24.4999L23.6705 20.1494L18.375 24.4999" stroke="var(--stroke-0, #36515C)" stroke-width="2.625" stroke-linecap="round" stroke-linejoin="round"/>
<path id="Path_4" d="M23.6777 26.4425L23.6252 15.75" stroke="var(--stroke-0, #36515C)" stroke-width="2.625" stroke-linecap="round" stroke-linejoin="round"/>
<path id="Path_5" fill-rule="evenodd" clip-rule="evenodd" d="M31.5 33.25H15.75C13.8162 33.25 12.25 31.6838 12.25 29.75V7C12.25 5.06625 13.8162 3.5 15.75 3.5H31.5C33.4338 3.5 35 5.06625 35 7V29.75C35 31.6838 33.4338 33.25 31.5 33.25Z" stroke="var(--stroke-0, #36515C)" stroke-width="2.625" stroke-linecap="round" stroke-linejoin="round"/>
<path id="Path_6" d="M12.25 10.5H10.5C8.56625 10.5 7 12.0662 7 14V35C7 36.9338 8.56625 38.5 10.5 38.5H26.25C28.1838 38.5 29.75 36.9338 29.75 35V33.25" stroke="var(--stroke-0, #36515C)" stroke-width="2.625" stroke-linecap="round" stroke-linejoin="round"/>
<path id="Path_7" d="M16.3887 10.5085C16.3887 10.5138 16.3922 10.5173 16.3975 10.5173C16.4027 10.5173 16.4062 10.5138 16.4062 10.5085C16.4062 10.5033 16.4027 10.4998 16.3975 10.4998C16.3922 10.4998 16.3887 10.5033 16.3887 10.5085" stroke="var(--stroke-0, #36515C)" stroke-width="2.625" stroke-linecap="round" stroke-linejoin="round"/>
<path id="Path_8" d="M21.2012 10.5085C21.2012 10.5138 21.2047 10.5173 21.21 10.5173C21.2152 10.5173 21.2187 10.5138 21.2187 10.5085C21.2187 10.5033 21.2152 10.4998 21.21 10.4998C21.2047 10.4998 21.2012 10.5033 21.2012 10.5085" stroke="var(--stroke-0, #36515C)" stroke-width="2.625" stroke-linecap="round" stroke-linejoin="round"/>
<path id="Path_9" d="M26.0225 10.5085C26.0225 10.5138 26.026 10.5173 26.0312 10.5173C26.0365 10.5173 26.04 10.5138 26.04 10.5085C26.04 10.5033 26.0365 10.4998 26.0312 10.4998C26.026 10.4998 26.0225 10.5033 26.0225 10.5085" stroke="var(--stroke-0, #36515C)" stroke-width="2.625" stroke-linecap="round" stroke-linejoin="round"/>
<path id="Path_10" d="M30.8438 10.5085C30.8438 10.5138 30.8473 10.5173 30.8525 10.5173C30.8578 10.5173 30.8613 10.5138 30.8613 10.5085C30.8613 10.5033 30.8578 10.4998 30.8525 10.4998C30.8473 10.4998 30.8438 10.5033 30.8438 10.5085" stroke="var(--stroke-0, #36515C)" stroke-width="2.625" stroke-linecap="round" stroke-linejoin="round"/>
</g>
</svg>
