<svg preserveAspectRatio="none" width="100%" height="100%" overflow="visible" style="display: block;" viewBox="0 0 42 42" fill="none" xmlns="http://www.w3.org/2000/svg">
<g id="Group">
<g id="Rectangle">
</g>
<circle id="Oval" cx="21" cy="16.625" r="4.375" stroke="var(--stroke-0, #36515C)" stroke-width="2.625" stroke-linecap="round" stroke-linejoin="round"/>
<path id="Path" d="M12.25 31.5V29.75C12.25 27.3338 14.2088 25.375 16.625 25.375H25.375C27.7912 25.375 29.75 27.3338 29.75 29.75V31.5" stroke="var(--stroke-0, #36515C)" stroke-width="2.625" stroke-linecap="round" stroke-linejoin="round"/>
<path id="Path_2" d="M36.75 19.25V35C36.75 36.933 35.183 38.5 33.25 38.5H8.75C6.817 38.5 5.25 36.933 5.25 35V8.75C5.25 6.817 6.817 5.25 8.75 5.25H22.75" stroke="var(--stroke-0, #36515C)" stroke-width="2.625" stroke-linecap="round" stroke-linejoin="round"/>
<path id="Path_3" d="M36.75 31.5H5.25" stroke="var(--stroke-0, #36515C)" stroke-width="2.625" stroke-linecap="round" stroke-linejoin="round"/>
<path id="Path_4" fill-rule="evenodd" clip-rule="evenodd" d="M32.0984 4.18282C32.3286 3.76183 32.7702 3.5 33.25 3.5C33.7298 3.5 34.1714 3.76183 34.4016 4.18282L35.4247 6.05357C35.5451 6.27383 35.7262 6.45493 35.9465 6.57538L37.8172 7.59843C38.2382 7.82863 38.5 8.2702 38.5 8.75002C38.5 9.22983 38.2382 9.67141 37.8172 9.90161L35.9465 10.9247C35.7262 11.0451 35.5451 11.2262 35.4247 11.4465L34.4016 13.3172C34.1714 13.7382 33.7298 14 33.25 14C32.7702 14 32.3286 13.7382 32.0984 13.3172L31.0754 11.4465C30.9549 11.2262 30.7738 11.0451 30.5536 10.9247L28.6828 9.90161C28.2618 9.67141 28 9.22983 28 8.75002C28 8.2702 28.2618 7.82863 28.6828 7.59843L30.5536 6.57538C30.7738 6.45493 30.9549 6.27383 31.0754 6.05357L32.0984 4.18282Z" stroke="var(--stroke-0, #36515C)" stroke-width="2.625" stroke-linecap="round" stroke-linejoin="round"/>
</g>
</svg>
