<svg preserveAspectRatio="none" width="100%" height="100%" overflow="visible" style="display: block;" viewBox="0 0 42 42" fill="none" xmlns="http://www.w3.org/2000/svg">
<g id="Frame">
<path id="Vector" d="M25.725 11.0251C25.4043 11.3522 25.2247 11.792 25.2247 12.2501C25.2247 12.7081 25.4043 13.1479 25.725 13.4751L28.525 16.2751C28.8521 16.5957 29.2919 16.7753 29.75 16.7753C30.208 16.7753 30.6478 16.5957 30.975 16.2751L36.4105 10.8413C36.9705 10.2778 37.9207 10.4563 38.1307 11.2228C38.6594 13.1458 38.6296 15.1797 38.0446 17.0863C37.4596 18.993 36.3437 20.6936 34.8274 21.9892C33.3111 23.2848 31.4572 24.1218 29.4827 24.4022C27.5081 24.6826 25.4945 24.3948 23.6775 23.5726L9.83496 37.415C9.13877 38.111 8.19462 38.5019 7.21022 38.5017C6.22582 38.5016 5.2818 38.1104 4.58584 37.4142C3.88988 36.718 3.49898 35.7738 3.49915 34.7894C3.49931 33.805 3.89052 32.861 4.58671 32.165L18.4292 18.3226C17.607 16.5055 17.3192 14.4919 17.5996 12.5174C17.88 10.5428 18.717 8.68889 20.0125 7.17263C21.3081 5.65637 23.0088 4.54045 24.9154 3.95545C26.8221 3.37045 28.8559 3.34057 30.779 3.8693C31.5455 4.0793 31.724 5.0278 31.1622 5.5913L25.725 11.0251Z" stroke="var(--stroke-0, #007CA2)" stroke-width="3.5" stroke-linecap="round" stroke-linejoin="round"/>
</g>
</svg>
