<svg preserveAspectRatio="none" width="100%" height="100%" overflow="visible" style="display: block;" viewBox="0 0 42 42" fill="none" xmlns="http://www.w3.org/2000/svg">
<g id="Frame">
<path id="Vector" d="M27.6992 25.9508C26.3865 27.263 24.6064 28.0003 22.7502 28.0003C20.8941 28.0003 19.1139 27.263 17.8012 25.9508C17.1512 25.3007 16.6355 24.529 16.2837 23.6797C15.9319 22.8304 15.7509 21.9202 15.7509 21.0009C15.7509 20.0816 15.9319 19.1713 16.2837 18.322C16.6355 17.4727 17.1512 16.701 17.8012 16.051C19.1139 14.7387 20.8941 14.0015 22.7502 14.0015C24.6064 14.0015 26.3865 14.7387 27.6992 16.051" stroke="var(--stroke-0, #007CA2)" stroke-width="3.5" stroke-linecap="round" stroke-linejoin="round"/>
<path id="Vector_2" d="M7 5.24996C7 4.78583 7.18437 4.34071 7.51256 4.01252C7.84075 3.68433 8.28587 3.49996 8.75 3.49996C9.18333 3.49758 9.60833 3.61901 9.975 3.84996L11.6077 4.89996C11.9736 5.13372 12.3986 5.25793 12.8328 5.25793C13.2669 5.25793 13.6919 5.13372 14.0577 4.89996L15.6923 3.84996C16.0581 3.6162 16.4831 3.49199 16.9172 3.49199C17.3514 3.49199 17.7764 3.6162 18.1422 3.84996L19.775 4.89996C20.1408 5.13372 20.5659 5.25793 21 5.25793C21.4341 5.25793 21.8592 5.13372 22.225 4.89996L23.8578 3.84996C24.2236 3.6162 24.6486 3.49199 25.0828 3.49199C25.5169 3.49199 25.9419 3.6162 26.3077 3.84996L27.9423 4.89996C28.3081 5.13372 28.7331 5.25793 29.1672 5.25793C29.6014 5.25793 30.0264 5.13372 30.3923 4.89996L32.025 3.84996C32.3917 3.61901 32.8167 3.49758 33.25 3.49996C33.7141 3.49996 34.1592 3.68433 34.4874 4.01252C34.8156 4.34071 35 4.78583 35 5.24996V36.75C35 37.2141 34.8156 37.6592 34.4874 37.9874C34.1592 38.3156 33.7141 38.5 33.25 38.5C32.8167 38.5023 32.3917 38.3809 32.025 38.15L30.3923 37.1C30.0264 36.8662 29.6014 36.742 29.1672 36.742C28.7331 36.742 28.3081 36.8662 27.9423 37.1L26.3077 38.15C25.9419 38.3837 25.5169 38.5079 25.0828 38.5079C24.6486 38.5079 24.2236 38.3837 23.8578 38.15L22.225 37.1C21.8592 36.8662 21.4341 36.742 21 36.742C20.5659 36.742 20.1408 36.8662 19.775 37.1L18.1422 38.15C17.7764 38.3837 17.3514 38.5079 16.9172 38.5079C16.4831 38.5079 16.0581 38.3837 15.6923 38.15L14.0577 37.1C13.6919 36.8662 13.2669 36.742 12.8328 36.742C12.3986 36.742 11.9736 36.8662 11.6077 37.1L9.975 38.15C9.60833 38.3809 9.18333 38.5023 8.75 38.5C8.28587 38.5 7.84075 38.3156 7.51256 37.9874C7.18437 37.6592 7 37.2141 7 36.75V5.24996Z" stroke="var(--stroke-0, #007CA2)" stroke-width="3.5" stroke-linecap="round" stroke-linejoin="round"/>
<path id="Vector_3" d="M14 21H22.75" stroke="var(--stroke-0, #007CA2)" stroke-width="3.5" stroke-linecap="round" stroke-linejoin="round"/>
</g>
</svg>
