<svg preserveAspectRatio="none" width="100%" height="100%" overflow="visible" style="display: block;" viewBox="0 0 42 42" fill="none" xmlns="http://www.w3.org/2000/svg">
<g id="Frame">
<path id="Vector" d="M19.25 29.75L22.75 33.25C23.0947 33.5947 23.504 33.8682 23.9544 34.0547C24.4048 34.2413 24.8875 34.3373 25.375 34.3373C25.8625 34.3373 26.3452 34.2413 26.7956 34.0547C27.246 33.8682 27.6553 33.5947 28 33.25C28.3447 32.9053 28.6182 32.496 28.8047 32.0456C28.9913 31.5952 29.0873 31.1125 29.0873 30.625C29.0873 30.1375 28.9913 29.6548 28.8047 29.2044C28.6182 28.754 28.3447 28.3447 28 28" stroke="var(--stroke-0, #007CA2)" stroke-width="3.5" stroke-linecap="round" stroke-linejoin="round"/>
<path id="Vector_2" d="M24.5014 24.5L28.8764 28.875C29.5726 29.5712 30.5168 29.9623 31.5014 29.9623C32.4859 29.9623 33.4302 29.5712 34.1264 28.875C34.8226 28.1788 35.2137 27.2346 35.2137 26.25C35.2137 25.2655 34.8226 24.3212 34.1264 23.625L27.3364 16.835C26.352 15.8519 25.0176 15.2996 23.6264 15.2996C22.2351 15.2996 20.9008 15.8519 19.9164 16.835L18.3764 18.375C17.6802 19.0712 16.7359 19.4623 15.7514 19.4623C14.7668 19.4623 13.8226 19.0712 13.1264 18.375C12.4302 17.6788 12.0391 16.7346 12.0391 15.75C12.0391 14.7655 12.4302 13.8212 13.1264 13.125L18.0439 8.20753C19.6403 6.61528 21.7222 5.60099 23.96 5.32523C26.1978 5.04947 28.4637 5.52798 30.3989 6.68503L31.2214 7.17503C31.9665 7.62475 32.8525 7.78073 33.7064 7.61253L36.7514 7.00003" stroke="var(--stroke-0, #007CA2)" stroke-width="3.5" stroke-linecap="round" stroke-linejoin="round"/>
<path id="Vector_3" d="M36.75 5.25L38.5 24.5H35" stroke="var(--stroke-0, #007CA2)" stroke-width="3.5" stroke-linecap="round" stroke-linejoin="round"/>
<path id="Vector_4" d="M5.25 5.25L3.5 24.5L14.875 35.875C15.5712 36.5712 16.5154 36.9623 17.5 36.9623C18.4846 36.9623 19.4288 36.5712 20.125 35.875C20.8212 35.1788 21.2123 34.2346 21.2123 33.25C21.2123 32.2654 20.8212 31.3212 20.125 30.625" stroke="var(--stroke-0, #007CA2)" stroke-width="3.5" stroke-linecap="round" stroke-linejoin="round"/>
<path id="Vector_5" d="M5.25 7H19.25" stroke="var(--stroke-0, #007CA2)" stroke-width="3.5" stroke-linecap="round" stroke-linejoin="round"/>
</g>
</svg>
