<svg preserveAspectRatio="none" width="100%" height="100%" overflow="visible" style="display: block;" viewBox="0 0 42 42" fill="none" xmlns="http://www.w3.org/2000/svg">
<g id="Frame">
<path id="Vector" d="M24.6855 9.71778C25.1713 9.96053 25.7069 10.0869 26.25 10.0869C26.7931 10.0869 27.3287 9.96053 27.8145 9.71778L34.2178 6.51528C34.4848 6.38186 34.7814 6.31894 35.0796 6.33252C35.3778 6.3461 35.6675 6.43572 35.9213 6.59286C36.1751 6.74999 36.3844 6.96943 36.5295 7.2303C36.6745 7.49116 36.7504 7.7848 36.75 8.08328V30.4203C36.7498 30.7452 36.6592 31.0636 36.4883 31.3399C36.3174 31.6163 36.0729 31.8395 35.7823 31.9848L27.8145 35.9695C27.3287 36.2123 26.7931 36.3387 26.25 36.3387C25.7069 36.3387 25.1713 36.2123 24.6855 35.9695L17.3145 32.284C16.8287 32.0413 16.2931 31.9149 15.75 31.9149C15.2069 31.9149 14.6713 32.0413 14.1855 32.284L7.78226 35.4865C7.51512 35.62 7.21827 35.6829 6.91995 35.6693C6.62164 35.6556 6.33178 35.5658 6.07796 35.4085C5.82414 35.2511 5.61481 35.0315 5.46989 34.7704C5.32496 34.5093 5.24927 34.2154 5.25001 33.9168V11.5815C5.25018 11.2566 5.3408 10.9382 5.51172 10.6619C5.68264 10.3855 5.92711 10.1623 6.21776 10.017L14.1855 6.03228C14.6713 5.78952 15.2069 5.66315 15.75 5.66315C16.2931 5.66315 16.8287 5.78952 17.3145 6.03228L24.6855 9.71778Z" stroke="var(--stroke-0, #007CA2)" stroke-width="3.5" stroke-linecap="round" stroke-linejoin="round"/>
<path id="Vector_2" d="M26.25 10.0871V36.3371" stroke="var(--stroke-0, #007CA2)" stroke-width="3.5" stroke-linecap="round" stroke-linejoin="round"/>
<path id="Vector_3" d="M15.75 5.66293V31.9129" stroke="var(--stroke-0, #007CA2)" stroke-width="3.5" stroke-linecap="round" stroke-linejoin="round"/>
</g>
</svg>
