<svg preserveAspectRatio="none" width="100%" height="100%" overflow="visible" style="display: block;" viewBox="0 0 42 42" fill="none" xmlns="http://www.w3.org/2000/svg">
<g id="Frame">
<path id="Vector" d="M38.5 29.75C38.5 30.6783 38.1313 31.5685 37.4749 32.2249C36.8185 32.8813 35.9283 33.25 35 33.25H11.949C11.0208 33.2502 10.1307 33.6191 9.4745 34.2755L5.621 38.129C5.44723 38.3027 5.22586 38.421 4.98486 38.469C4.74386 38.5169 4.49405 38.4923 4.26704 38.3983C4.04002 38.3042 3.84598 38.145 3.70945 37.9407C3.57292 37.7364 3.50003 37.4962 3.5 37.2505V8.75C3.5 7.82174 3.86875 6.9315 4.52513 6.27513C5.1815 5.61875 6.07174 5.25 7 5.25H35C35.9283 5.25 36.8185 5.61875 37.4749 6.27513C38.1313 6.9315 38.5 7.82174 38.5 8.75V29.75Z" stroke="var(--stroke-0, #007CA2)" stroke-width="3.5" stroke-linecap="round" stroke-linejoin="round"/>
<path id="Vector_2" d="M13.125 16.625C13.125 17.8272 13.5887 19.0452 14.3447 19.852L19.6105 25.564C19.803 25.799 20.0466 25.9869 20.3227 26.1135C20.5399 26.2046 20.7731 26.2509 21.0086 26.2497C21.244 26.2485 21.4768 26.1998 21.693 26.1065C21.9628 25.98 22.2008 25.7946 22.3895 25.564L27.6535 19.852C28.4427 18.9626 28.8774 17.8141 28.875 16.625C28.875 15.7068 28.5861 14.8118 28.0492 14.0669C27.5123 13.322 26.7546 12.7649 25.8835 12.4745C25.0124 12.1841 24.072 12.1752 23.1955 12.449C22.319 12.7228 21.5509 13.2654 21 14C20.4491 13.2654 19.681 12.7228 18.8045 12.449C17.928 12.1752 16.9876 12.1841 16.1165 12.4745C15.2454 12.7649 14.4877 13.322 13.9508 14.0669C13.4139 14.8118 13.125 15.7068 13.125 16.625Z" stroke="var(--stroke-0, #007CA2)" stroke-width="3.5" stroke-linecap="round" stroke-linejoin="round"/>
</g>
</svg>
