<svg preserveAspectRatio="none" width="100%" height="100%" overflow="visible" style="display: block;" viewBox="0 0 198 38.7391" fill="none" xmlns="http://www.w3.org/2000/svg">
<g id="Frame 26">
<path id="Star 1" d="M19.9076 0L24.3771 13.384H38.8409L27.1395 21.6558L31.609 35.0399L19.9076 26.7681L8.20621 35.0399L12.6757 21.6558L0.974348 13.384H15.4381L19.9076 0Z" fill="var(--fill-0, #E3BA40)"/>
<path id="Star 2" d="M59.7228 0L64.1924 13.384H78.6561L66.9547 21.6558L71.4242 35.0399L59.7228 26.7681L48.0214 35.0399L52.491 21.6558L40.7896 13.384H55.2533L59.7228 0Z" fill="var(--fill-0, #E3BA40)"/>
<path id="Star 3" d="M99 0L103.349 13.384H117.422L106.036 21.6558L110.385 35.0399L99 26.7681L87.6149 35.0399L91.9636 21.6558L80.5784 13.384H94.6513L99 0Z" fill="var(--fill-0, #E3BA40)"/>
<path id="Star 4" d="M138.277 0L142.747 13.384H157.21L145.509 21.6558L149.979 35.0399L138.277 26.7681L126.576 35.0399L131.045 21.6558L119.344 13.384H133.808L138.277 0Z" fill="var(--fill-0, #E3BA40)"/>
<path id="Star 5" d="M178.092 0L182.562 13.384H197.026L185.324 21.6558L189.794 35.0399L178.092 26.7681L166.391 35.0399L170.861 21.6558L159.159 13.384H173.623L178.092 0Z" fill="var(--fill-0, #E3BA40)"/>
</g>
</svg>
