<svg preserveAspectRatio="none" width="100%" height="100%" overflow="visible" style="display: block;" viewBox="0 0 30 30" fill="none" xmlns="http://www.w3.org/2000/svg">
<g id="watch-square-minimalistic-charge_svgrepo.com">
<path id="Vector (Stroke)" d="M21.2503 26.4657C21.8216 26.4657 22.2848 26.9288 22.2848 27.5002C22.2846 28.0713 21.8215 28.5346 21.2503 28.5346H8.75064C8.17942 28.5346 7.71634 28.0713 7.71616 27.5002C7.71616 26.9288 8.17931 26.4657 8.75064 26.4657H21.2503ZM22.7162 14.9995C22.7162 13.2226 22.7149 11.9678 22.6161 10.9969C22.5192 10.0435 22.3361 9.47938 22.0474 9.04716C21.7579 8.61409 21.3863 8.2414 20.9533 7.95206C20.5211 7.66341 19.9568 7.4813 19.0035 7.38431C18.0326 7.28554 16.7771 7.2843 15 7.2843C13.2231 7.2843 11.9683 7.28556 10.9974 7.38431C10.0438 7.48131 9.47988 7.6643 9.04765 7.95307C8.61465 8.2424 8.24289 8.61416 7.95356 9.04716C7.66478 9.47939 7.4818 10.0434 7.3848 10.9969C7.28605 11.9678 7.28479 13.2226 7.28479 14.9995C7.28479 16.7766 7.28603 18.0321 7.3848 19.003C7.48182 19.9565 7.66477 20.5206 7.95356 20.9528C8.24289 21.3857 8.61464 21.7575 9.04765 22.0469C9.47987 22.3356 10.044 22.5187 10.9974 22.6157C11.9683 22.7144 13.2231 22.7157 15 22.7157C16.7771 22.7157 18.0326 22.7144 19.0035 22.6157C19.957 22.5186 20.5211 22.3357 20.9533 22.0469C21.3862 21.7575 21.758 21.3858 22.0474 20.9528C22.3362 20.5206 22.5191 19.9565 22.6161 19.003C22.7149 18.0321 22.7162 16.7766 22.7162 14.9995ZM15.3222 10.5363C15.7162 10.1225 16.3713 10.1069 16.7851 10.5009C17.1987 10.8949 17.2144 11.55 16.8204 11.9637L14.9141 13.965H17.5003C17.9141 13.965 18.2879 14.212 18.4509 14.5924C18.6139 14.9727 18.5353 15.414 18.2499 15.7137L14.6777 19.4637C14.2837 19.8769 13.6295 19.8927 13.2159 19.4991C12.8022 19.1051 12.7856 18.45 13.1795 18.0363L15.0858 16.034H12.5006C12.0868 16.034 11.712 15.7879 11.549 15.4076C11.386 15.0273 11.4657 14.5859 11.751 14.2863L15.3222 10.5363ZM21.2503 1.46533C21.8216 1.46533 22.2848 1.92849 22.2848 2.49981C22.2848 3.07114 21.8216 3.5343 21.2503 3.5343H8.75064C8.17931 3.5343 7.71616 3.07114 7.71616 2.49981C7.71616 1.92849 8.17931 1.46533 8.75064 1.46533H21.2503ZM24.7851 14.9995C24.7851 16.7335 24.7859 18.1122 24.674 19.2122C24.5745 20.1899 24.3792 21.0349 23.9608 21.7862L23.7678 22.1025C23.3825 22.6789 22.9011 23.1843 22.3454 23.5966L22.1029 23.7673C21.2741 24.3211 20.3299 24.5599 19.2127 24.6735C18.1127 24.7854 16.734 24.7846 15 24.7846C13.2663 24.7846 11.8881 24.7854 10.7883 24.6735C9.8107 24.5741 8.96547 24.3786 8.2142 23.9603L7.898 23.7673C7.3215 23.382 6.81609 22.9006 6.40386 22.3449L6.23313 22.1025C5.6793 21.2736 5.4406 20.3294 5.32695 19.2122C5.21505 18.1122 5.21582 16.7335 5.21582 14.9995C5.21582 13.2658 5.21509 11.8876 5.32695 10.7878C5.4406 9.6706 5.67932 8.72636 6.23313 7.89751C6.6734 7.23861 7.2391 6.67291 7.898 6.23264C8.72685 5.67883 9.67108 5.44011 10.7883 5.32646C11.8881 5.2146 13.2662 5.21533 15 5.21533C16.734 5.21533 18.1127 5.21456 19.2127 5.32646C20.1902 5.4259 21.0355 5.62039 21.7867 6.03868L22.1029 6.23264L22.3454 6.40337C22.9011 6.81561 23.3825 7.32101 23.7678 7.89751L23.9608 8.21372C24.3791 8.96498 24.5746 9.81021 24.674 10.7878C24.7858 11.8876 24.7851 13.2658 24.7851 14.9995Z" fill="var(--fill-0, #36515C)"/>
</g>
</svg>
