<svg preserveAspectRatio="none" width="100%" height="100%" overflow="visible" style="display: block;" viewBox="0 0 42 42" fill="none" xmlns="http://www.w3.org/2000/svg">
<g id="walking-round_svgrepo.com">
<path id="Vector" fill-rule="evenodd" clip-rule="evenodd" d="M21.875 4.8125C20.1836 4.8125 18.8125 6.18362 18.8125 7.875C18.8125 9.56637 20.1836 10.9375 21.875 10.9375C23.5664 10.9375 24.9375 9.56637 24.9375 7.875C24.9375 6.18362 23.5664 4.8125 21.875 4.8125ZM16.1876 7.875C16.1876 4.73387 18.7339 2.1875 21.875 2.1875C25.0162 2.1875 27.5625 4.73387 27.5625 7.875C27.5625 11.0161 25.0162 13.5625 21.875 13.5625C18.7339 13.5625 16.1876 11.0161 16.1876 7.875ZM19.1261 16.2176C19.4758 16.1986 19.813 16.1875 20.125 16.1875C21.0947 16.1875 22.1443 16.2952 23.0891 16.431C25.7519 16.8134 27.7679 18.7784 28.5736 21.1955C28.7562 21.7429 29.3097 22.0761 29.879 21.9812L33.0342 21.4553C33.7493 21.3362 34.4255 21.8192 34.5446 22.5342C34.6638 23.2493 34.1808 23.9255 33.4658 24.0446L30.3105 24.5705C28.4672 24.8778 26.6744 23.7982 26.0834 22.0255C25.5456 20.4123 24.2585 19.2509 22.7161 19.0293C22.2476 18.9619 21.7707 18.9051 21.3075 18.8666L20.8329 23.6115C20.686 25.081 20.6689 25.469 20.7681 25.8156C20.8672 26.1621 21.087 26.4824 21.9891 27.6516L29.7398 37.6983C30.1828 38.2721 30.0764 39.0964 29.5024 39.5391C28.9285 39.9819 28.1043 39.8757 27.6615 39.3017L19.9106 29.2551C19.8688 29.2008 19.8275 29.1473 19.7867 29.0944C19.068 28.1647 18.4994 27.4291 18.2443 26.5379C17.9893 25.6464 18.0826 24.7214 18.2007 23.5524C18.2074 23.4859 18.2142 23.4185 18.221 23.3504L18.6657 18.904C15.7373 19.383 13.5626 22.1359 13.5626 25.375C13.5626 26.0998 12.9749 26.6875 12.2501 26.6875C11.5252 26.6875 10.9376 26.0998 10.9376 25.375C10.9376 20.7538 14.2867 16.4799 19.1261 16.2176ZM17.7574 29.338C18.4683 29.4801 18.9292 30.1716 18.7871 30.8824C18.1613 34.0111 16.4524 36.8189 13.961 38.812L13.07 39.525C12.5039 39.9777 11.678 39.886 11.2252 39.3199C10.7723 38.7539 10.8641 37.9279 11.4301 37.475L12.3212 36.7622C14.3303 35.1549 15.7084 32.8905 16.213 30.3676C16.3552 29.6567 17.0466 29.1958 17.7574 29.338Z" fill="var(--fill-0, white)"/>
</g>
</svg>
