<svg preserveAspectRatio="none" width="100%" height="100%" overflow="visible" style="display: block;" viewBox="0 0 29 29" fill="none" xmlns="http://www.w3.org/2000/svg">
<g id="money-receive_svgrepo.com">
<path id="Vector" d="M15.5097 19.6854V20.9615C15.5097 21.1677 15.4277 21.3652 15.282 21.5109C15.1362 21.6567 14.9385 21.7386 14.7324 21.7386C14.5263 21.7386 14.3286 21.6567 14.1829 21.5109C14.0371 21.3652 13.9553 21.1677 13.9553 20.9615V19.6505C13.4408 19.5657 12.9488 19.3781 12.5083 19.0992C12.0679 18.8202 11.6881 18.4555 11.3916 18.0266C11.2727 17.8967 11.2066 17.727 11.2061 17.5509C11.2059 17.4505 11.2262 17.3511 11.2657 17.2586C11.3051 17.1663 11.363 17.0827 11.4357 17.0134C11.5083 16.944 11.5943 16.8899 11.6884 16.8548C11.7825 16.8195 11.8828 16.8039 11.9832 16.8086C12.0829 16.8081 12.1813 16.8296 12.2716 16.8717C12.3619 16.9138 12.4417 16.9754 12.5053 17.0522C12.8763 17.5369 13.3799 17.9034 13.9553 18.1077V15.1615C12.4125 14.5467 11.6352 13.6534 11.6352 12.4818C11.6585 11.8546 11.905 11.2563 12.3304 10.7948C12.7557 10.3333 13.332 10.039 13.9553 9.96474V8.67701C13.9553 8.47089 14.0371 8.27306 14.1829 8.12731C14.3286 7.98155 14.5263 7.8999 14.7324 7.8999C14.9385 7.8999 15.1362 7.98155 15.282 8.12731C15.4277 8.27306 15.5097 8.47089 15.5097 8.67701V9.95313C15.9432 10.0199 16.3587 10.1733 16.7314 10.4046C17.1041 10.6358 17.4265 10.9399 17.6789 11.2986C17.7812 11.4328 17.8416 11.5941 17.8528 11.7625C17.8559 11.8619 17.8391 11.9611 17.8031 12.0539C17.7672 12.1467 17.713 12.2312 17.6438 12.3026C17.5745 12.374 17.4916 12.4309 17.4 12.4697C17.3084 12.5084 17.2099 12.5283 17.1104 12.5282C17.0067 12.527 16.9044 12.5035 16.8104 12.4594C16.7163 12.4155 16.6328 12.3519 16.5653 12.2731C16.2886 11.9276 15.9241 11.6629 15.5097 11.5073V14.1173L15.7997 14.2334C17.2729 14.8018 18.1893 15.6369 18.1893 16.9709C18.1693 17.6785 17.8816 18.3524 17.3843 18.8561C16.887 19.3599 16.217 19.6563 15.5097 19.6854ZM13.9553 13.4447V11.5654C13.7681 11.6333 13.6068 11.7583 13.4944 11.9228C13.3821 12.0872 13.3243 12.2828 13.3289 12.4818C13.3384 12.679 13.4017 12.8699 13.5123 13.0335C13.6227 13.1972 13.776 13.3274 13.9553 13.4099V13.4447ZM16.5073 17.0057C16.5073 16.4373 16.1129 16.1009 15.5097 15.8457V18.1657C15.7945 18.1257 16.0542 17.9813 16.2385 17.7604C16.4229 17.5397 16.5187 17.2582 16.5073 16.9709V17.0057Z" fill="var(--fill-0, #36515C)"/>
<path id="Vector (Stroke)" d="M1.59473 20.8454V9.24543C1.59473 7.66864 2.22088 6.15614 3.33572 5.04128C4.45057 3.92645 5.96308 3.30029 7.53987 3.30029H15.1722C15.8929 3.30029 16.4771 3.88442 16.4771 4.60515C16.4771 5.32588 15.8929 5.91001 15.1722 5.91001H7.53987C6.65544 5.91001 5.80699 6.26158 5.18149 6.88706C4.55601 7.51255 4.20444 8.36101 4.20444 9.24543V20.8454C4.20451 21.7297 4.55612 22.5777 5.18149 23.2031C5.80698 23.8286 6.65545 24.1802 7.53987 24.1802H21.4593C22.3438 24.1802 23.1923 23.8286 23.8177 23.2031C24.443 22.5778 24.7947 21.7298 24.7947 20.8454V13.8036C24.7949 13.083 25.3789 12.4987 26.0996 12.4987C26.8202 12.4987 27.4043 13.083 27.4044 13.8036V20.8454C27.4044 22.4219 26.7784 23.9341 25.6635 25.0489C24.5486 26.1638 23.0361 26.7899 21.4593 26.7899H7.53987C5.96306 26.7899 4.45058 26.1638 3.33572 25.0489C2.22094 23.9341 1.59479 22.422 1.59473 20.8454Z" fill="var(--fill-0, #36515C)"/>
<path id="Vector (Stroke)_2" d="M25.1771 2.46475C25.6867 1.95511 26.5132 1.95511 27.0229 2.46475C27.5322 2.97432 27.5322 3.80024 27.0229 4.30981L20.4568 10.8759C19.9472 11.3852 19.1213 11.3852 18.6117 10.8759C18.1021 10.3662 18.1021 9.53974 18.6117 9.0301L25.1771 2.46475Z" fill="var(--fill-0, #36515C)"/>
<path id="Vector (Stroke)_3" d="M18.2295 4.69744C18.2295 3.9767 18.8136 3.39258 19.5344 3.39258C20.2551 3.39258 20.8392 3.9767 20.8392 4.69744V8.64741H24.7892C25.5099 8.64743 26.094 9.23155 26.094 9.95227C26.094 10.673 25.5099 11.2571 24.7892 11.2571H19.5344C18.8136 11.2571 18.2295 10.673 18.2295 9.95227V4.69744Z" fill="var(--fill-0, #36515C)"/>
</g>
</svg>
