<svg preserveAspectRatio="none" width="100%" height="100%" overflow="visible" style="display: block;" viewBox="0 0 28 28" fill="none" xmlns="http://www.w3.org/2000/svg">
<path id="Vector" d="M17.4408 0C23.2725 0 28 4.72748 28 10.5592C28 16.3909 23.2725 21.1184 17.4408 21.1184C15.4435 21.1184 13.5757 20.5638 11.95 19.6339L4.32617 27.2578C3.33648 28.2474 1.7319 28.2474 0.742207 27.2578C-0.247402 26.2681 -0.247402 24.6635 0.742207 23.6738L8.39966 16.0171C7.43615 14.4243 6.88158 12.5565 6.88158 10.5592C6.88158 4.72748 11.6091 0 17.4408 0ZM17.4408 3.37895C13.4753 3.37895 10.2605 6.59368 10.2605 10.5592C10.2605 14.5247 13.4753 17.7395 17.4408 17.7395C21.4063 17.7395 24.6211 14.5247 24.6211 10.5592C24.6211 6.59368 21.4063 3.37895 17.4408 3.37895Z" fill="var(--fill-0, #36515C)"/>
</svg>
