<svg preserveAspectRatio="none" width="100%" height="100%" overflow="visible" style="display: block;" viewBox="-4.3636 -4.3636 34.9091 34.9091" fill="none" xmlns="http://www.w3.org/2000/svg">
<g id="Group">
<path id="Vector" d="M13.0909 26.1818C5.89091 26.1818 0 20.2909 0 13.0909C0 5.89091 5.89091 0 13.0909 0C20.2909 0 26.1818 5.89091 26.1818 13.0909C26.1818 20.2909 20.2909 26.1818 13.0909 26.1818ZM10.3636 18.5455C11.0182 21.9273 12.2182 24 13.0909 24C13.9636 24 15.1636 21.9273 15.8182 18.5455H10.3636ZM18.1091 18.5455C17.7818 20.4 17.2364 22.1455 16.5818 23.4545C19.0909 22.5818 21.2727 20.8364 22.5818 18.5455H18.1091ZM3.6 18.5455C4.90909 20.8364 7.09091 22.5818 9.6 23.4545C8.94545 22.1455 8.4 20.4 8.07273 18.5455H3.6ZM18.4364 16.3636H23.5636C23.7818 15.3818 24 14.1818 24 13.0909C24 12 23.7818 10.8 23.4545 9.81818H18.3273C18.5455 10.9091 18.5455 12 18.5455 13.0909C18.5455 14.1818 18.5455 15.2727 18.4364 16.3636ZM10.0364 16.3636H16.2545C16.3636 15.3818 16.4727 14.2909 16.4727 13.0909C16.4727 11.8909 16.3636 10.8 16.2545 9.81818H10.0364C9.92727 10.8 9.81818 11.8909 9.81818 13.0909C9.81818 14.2909 9.92727 15.3818 10.0364 16.3636ZM2.72727 16.3636H7.85455C7.74545 15.2727 7.74545 14.1818 7.74545 13.0909C7.74545 12 7.74545 10.9091 7.85455 9.81818H2.72727C2.4 10.8 2.18182 12 2.18182 13.0909C2.18182 14.1818 2.4 15.3818 2.72727 16.3636ZM18.1091 7.63636H22.5818C21.2727 5.34545 19.0909 3.6 16.5818 2.72727C17.2364 4.03636 17.7818 5.78182 18.1091 7.63636ZM10.3636 7.63636H15.9273C15.2727 4.25455 14.0727 2.18182 13.2 2.18182C12.3273 2.18182 11.0182 4.25455 10.3636 7.63636ZM3.6 7.63636H8.07273C8.4 5.78182 8.94545 4.03636 9.6 2.72727C7.09091 3.6 5.01818 5.34545 3.6 7.63636Z" fill="var(--fill-0, #007CA2)"/>
</g>
</svg>
