<svg preserveAspectRatio="none" width="100%" height="100%" overflow="visible" style="display: block;" viewBox="0 0 25 24" fill="none" xmlns="http://www.w3.org/2000/svg">
<g id="map_svgrepo.com">
<path id="Vector (Stroke)" d="M15.2151 3.08097C15.4957 2.96554 15.8162 2.97363 16.0911 3.10558L22.3411 6.10558C22.694 6.27497 22.9169 6.62134 22.9169 7.00011V20.0001C22.9169 20.3467 22.73 20.6687 22.4229 20.8509C22.1158 21.0331 21.7322 21.0496 21.4093 20.8946L15.6252 18.1181L9.84113 20.8946C9.54788 21.0354 9.20259 21.0354 8.90933 20.8946L2.65933 17.8946C2.30643 17.7253 2.08357 17.3789 2.08357 17.0001V4.00011C2.08357 3.65353 2.27044 3.33154 2.57754 3.14933C2.88464 2.96714 3.26824 2.95059 3.59113 3.10558L9.37523 5.88175L15.1593 3.10558L15.2151 3.08097ZM4.1669 16.3818L8.33357 18.3818V7.61808L4.1669 5.61808V16.3818ZM10.4169 7.61808V18.3818L14.5836 16.3818V5.61808L10.4169 7.61808ZM16.6669 16.3818L20.8336 18.3818V7.61808L16.6669 5.61808V16.3818Z" fill="var(--fill-0, #007CA2)"/>
</g>
</svg>
