<svg preserveAspectRatio="none" width="100%" height="100%" overflow="visible" style="display: block;" viewBox="0 0 42 42" fill="none" xmlns="http://www.w3.org/2000/svg">
<g id="Group">
<g id="Path">
</g>
<path id="Path_2" d="M14 36.75H10.5C8.567 36.75 7 35.183 7 33.25V8.75C7 6.817 8.567 5.25 10.5 5.25H24.5C26.433 5.25 28 6.817 28 8.75V12.25" stroke="var(--stroke-0, #36515C)" stroke-width="2.625" stroke-linecap="round" stroke-linejoin="round"/>
<path id="Path_3" d="M21.8756 5.25V8.75C21.8756 9.23325 21.4838 9.625 21.0006 9.625H14.0039C13.5207 9.625 13.1289 9.23325 13.1289 8.75V5.25" stroke="var(--stroke-0, #36515C)" stroke-width="2.625" stroke-linecap="round" stroke-linejoin="round"/>
<circle id="Oval" cx="28" cy="28" r="10.5" stroke="var(--stroke-0, #36515C)" stroke-width="2.625" stroke-linecap="round" stroke-linejoin="round"/>
<path id="Path_4" d="M29.75 32.8124L28.0455 31.2549L26.25 32.8124" stroke="var(--stroke-0, #36515C)" stroke-width="2.625" stroke-linecap="round" stroke-linejoin="round"/>
<path id="Path_5" d="M32.375 29.3123L28.0379 25.6869L23.625 29.3123" stroke="var(--stroke-0, #36515C)" stroke-width="2.625" stroke-linecap="round" stroke-linejoin="round"/>
<path id="Path_6" d="M28.0527 31.255L28.0002 22.3125" stroke="var(--stroke-0, #36515C)" stroke-width="2.625" stroke-linecap="round" stroke-linejoin="round"/>
</g>
</svg>
