<svg preserveAspectRatio="none" width="100%" height="100%" overflow="visible" style="display: block;" viewBox="0 0 33 33" fill="none" xmlns="http://www.w3.org/2000/svg">
<g id="info-circle_svgrepo.com">
<path id="Vector" d="M16.5 24.4062C17.0695 24.4062 17.5312 23.9445 17.5312 23.375V15.125C17.5312 14.5555 17.0695 14.0938 16.5 14.0938C15.9305 14.0938 15.4688 14.5555 15.4688 15.125V23.375C15.4688 23.9445 15.9305 24.4062 16.5 24.4062Z" fill="var(--fill-0, #007CA2)"/>
<path id="Vector_2" d="M16.5 9.625C17.2594 9.625 17.875 10.2406 17.875 11C17.875 11.7594 17.2594 12.375 16.5 12.375C15.7406 12.375 15.125 11.7594 15.125 11C15.125 10.2406 15.7406 9.625 16.5 9.625Z" fill="var(--fill-0, #007CA2)"/>
<path id="Vector_3" fill-rule="evenodd" clip-rule="evenodd" d="M1.71875 16.5C1.71875 8.33654 8.33654 1.71875 16.5 1.71875C24.6635 1.71875 31.2812 8.33654 31.2812 16.5C31.2812 24.6635 24.6635 31.2812 16.5 31.2812C8.33654 31.2812 1.71875 24.6635 1.71875 16.5ZM16.5 3.78125C9.47563 3.78125 3.78125 9.47563 3.78125 16.5C3.78125 23.5243 9.47563 29.2188 16.5 29.2188C23.5243 29.2188 29.2188 23.5243 29.2188 16.5C29.2188 9.47563 23.5243 3.78125 16.5 3.78125Z" fill="var(--fill-0, #007CA2)"/>
</g>
</svg>
