<svg preserveAspectRatio="none" width="100%" height="100%" overflow="visible" style="display: block;" viewBox="0 0 42 42" fill="none" xmlns="http://www.w3.org/2000/svg">
<g id="Group">
<g id="Group_2">
<path id="Path" fill-rule="evenodd" clip-rule="evenodd" d="M28.8031 37.5042L25.3101 26.3462C24.9408 25.1685 26.1466 24.115 27.2648 24.6365L37.6826 29.498C38.9181 30.0737 38.7098 31.8902 37.3763 32.172L33.0871 33.0802L31.4946 37.555C31.0378 38.8395 29.2091 38.8045 28.8031 37.5042V37.5042Z" stroke="var(--stroke-0, #36515C)" stroke-width="2.625" stroke-linecap="round" stroke-linejoin="round"/>
<path id="Path_2" d="M35 19.25H27.699C24.9655 19.25 22.75 17.0345 22.75 14.301V14.301C22.75 12.9885 23.2715 11.7285 24.199 10.801L28.4935 6.50653" stroke="var(--stroke-0, #36515C)" stroke-width="2.625" stroke-linecap="round" stroke-linejoin="round"/>
<path id="Path_3" d="M8.23903 30.5165L11.3488 25.8527C11.9123 25.0075 12.859 24.5 13.874 24.5V24.5C15.0238 24.5 16.0738 23.8507 16.5883 22.8217L16.821 22.3562C17.248 21.5022 17.248 20.496 16.821 19.642L14.8383 15.6782C14.3255 14.6492 13.2738 14 12.124 14H4.41003" stroke="var(--stroke-0, #36515C)" stroke-width="2.625" stroke-linecap="round" stroke-linejoin="round"/>
<path id="Path_4" d="M19.25 3.5C10.5315 3.5 3.5 10.5315 3.5 19.25C3.5 27.9685 10.5315 35 19.25 35" stroke="var(--stroke-0, #36515C)" stroke-width="2.625" stroke-linecap="round" stroke-linejoin="round"/>
<path id="Path_5" d="M35 19.25C35 10.5315 27.9685 3.5 19.25 3.5" stroke="var(--stroke-0, #36515C)" stroke-width="2.625" stroke-linecap="round" stroke-linejoin="round"/>
</g>
<g id="Path_6">
</g>
</g>
</svg>
