<svg preserveAspectRatio="none" width="100%" height="100%" overflow="visible" style="display: block;" viewBox="0 0 13 12" fill="none" xmlns="http://www.w3.org/2000/svg">
<path id="%" d="M2.94777 5.20383C2.52824 5.20383 2.13631 5.13817 1.77197 5.00684C1.41868 4.86457 1.10955 4.67852 0.844586 4.4487C0.579618 4.21888 0.369851 3.94528 0.215287 3.62791C0.0717622 3.31053 0 2.97127 0 2.61012C0 2.24897 0.0717622 1.90971 0.215287 1.59234C0.369851 1.27497 0.579618 1.00137 0.844586 0.771546C1.10955 0.541723 1.41868 0.361149 1.77197 0.229822C2.13631 0.0875512 2.52824 0.0164157 2.94777 0.0164157C3.35626 0.0164157 3.73715 0.0875512 4.09045 0.229822C4.45478 0.361149 4.76943 0.541723 5.0344 0.771546C5.29936 1.00137 5.50913 1.27497 5.66369 1.59234C5.81826 1.90971 5.89554 2.24897 5.89554 2.61012C5.89554 2.97127 5.81826 3.31053 5.66369 3.62791C5.50913 3.94528 5.29936 4.21888 5.0344 4.4487C4.76943 4.67852 4.45478 4.86457 4.09045 5.00684C3.73715 5.13817 3.35626 5.20383 2.94777 5.20383ZM2.94777 3.7264C3.16858 3.7264 3.35626 3.61696 3.51083 3.39809C3.66539 3.17921 3.74268 2.91655 3.74268 2.61012C3.74268 2.30369 3.66539 2.04104 3.51083 1.82216C3.35626 1.60328 3.16858 1.49384 2.94777 1.49384C2.72696 1.49384 2.53928 1.60328 2.38471 1.82216C2.23015 2.04104 2.15287 2.30369 2.15287 2.61012C2.15287 2.91655 2.23015 3.17921 2.38471 3.39809C2.53928 3.61696 2.72696 3.7264 2.94777 3.7264ZM10.0522 12C9.6327 12 9.24076 11.9343 8.87643 11.803C8.52314 11.6607 8.21401 11.4747 7.94904 11.2449C7.68408 11.015 7.47431 10.7415 7.31975 10.4241C7.17622 10.1067 7.10446 9.76744 7.10446 9.40629C7.10446 9.04514 7.17622 8.70588 7.31975 8.38851C7.47431 8.07114 7.68408 7.79754 7.94904 7.56772C8.21401 7.33789 8.52314 7.15732 8.87643 7.02599C9.24076 6.88372 9.6327 6.81259 10.0522 6.81259C10.4607 6.81259 10.8416 6.88372 11.1949 7.02599C11.5592 7.15732 11.8739 7.33789 12.1389 7.56772C12.4038 7.79754 12.6136 8.07114 12.7682 8.38851C12.9227 8.70588 13 9.04514 13 9.40629C13 9.76744 12.9227 10.1067 12.7682 10.4241C12.6136 10.7415 12.4038 11.015 12.1389 11.2449C11.8739 11.4747 11.5592 11.6607 11.1949 11.803C10.8416 11.9343 10.4607 12 10.0522 12ZM10.0522 10.5226C10.273 10.5226 10.4607 10.4131 10.6153 10.1943C10.7699 9.97538 10.8471 9.71272 10.8471 9.40629C10.8471 9.09986 10.7699 8.83721 10.6153 8.61833C10.4607 8.39945 10.273 8.29001 10.0522 8.29001C9.83142 8.29001 9.64374 8.39945 9.48917 8.61833C9.33461 8.83721 9.25732 9.09986 9.25732 9.40629C9.25732 9.71272 9.33461 9.97538 9.48917 10.1943C9.64374 10.4131 9.83142 10.5226 10.0522 10.5226ZM1.39108 10.7688L6.07771 5.53215L10.2344 0L11.6089 1.23119L7.12102 6.30369L2.7656 12L1.39108 10.7688Z" fill="var(--fill-0, white)"/>
</svg>
