<svg preserveAspectRatio="none" width="100%" height="100%" overflow="visible" style="display: block;" viewBox="0 0 42 42" fill="none" xmlns="http://www.w3.org/2000/svg">
<g id="Group">
<g id="Path">
</g>
<path id="Path_2" fill-rule="evenodd" clip-rule="evenodd" d="M20.9999 8.75C16.4621 13.594 16.4621 21.406 20.9999 26.25C25.5376 21.406 25.5376 13.594 20.9999 8.75Z" stroke="var(--stroke-0, #36515C)" stroke-width="2.625" stroke-linecap="round" stroke-linejoin="round"/>
<path id="Path_3" d="M21 8.75C25.844 8.75 29.75 12.656 29.75 17.5C29.75 22.344 25.844 26.25 21 26.25" stroke="var(--stroke-0, #36515C)" stroke-width="2.625" stroke-linecap="round" stroke-linejoin="round"/>
<path id="Path_4" d="M21 26.25C16.156 26.25 12.25 22.344 12.25 17.5C12.25 12.656 16.156 8.75 21 8.75" stroke="var(--stroke-0, #36515C)" stroke-width="2.625" stroke-linecap="round" stroke-linejoin="round"/>
<path id="Path_5" d="M12.25 17.5H29.75" stroke="var(--stroke-0, #36515C)" stroke-width="2.625" stroke-linecap="round" stroke-linejoin="round"/>
<path id="Path_6" fill-rule="evenodd" clip-rule="evenodd" d="M31.1115 38.5H10.8885C8.74125 38.5 7 36.7587 7 34.6115V7.3885C7 5.24125 8.74125 3.5 10.8885 3.5H31.1115C33.2587 3.5 35 5.24125 35 7.3885V34.6115C35 36.7587 33.2587 38.5 31.1115 38.5Z" stroke="var(--stroke-0, #36515C)" stroke-width="2.625" stroke-linecap="round" stroke-linejoin="round"/>
<path id="Path_7" d="M26.25 32.375H15.75" stroke="var(--stroke-0, #36515C)" stroke-width="2.625" stroke-linecap="round" stroke-linejoin="round"/>
</g>
</svg>
