<svg preserveAspectRatio="none" width="100%" height="100%" overflow="visible" style="display: block;" viewBox="0 0 64 60" fill="none" xmlns="http://www.w3.org/2000/svg">
<g id="money-receive_svgrepo.com">
<path id="Vector" fill-rule="evenodd" clip-rule="evenodd" d="M31.8408 11.3391C30.0783 10.3215 28.486 9.51994 27.0219 9.04097C25.5379 8.55548 24.0638 8.36075 22.6065 8.69696C19.7307 9.36043 17.8071 11.8881 15.9248 15.097C15.326 16.1178 15.5785 17.354 16.3424 18.1267C16.5964 18.3836 17.0256 18.8967 17.2469 19.5321C17.4401 20.0868 17.5041 20.7911 16.9838 21.6923C16.4635 22.5936 15.8215 22.8903 15.2445 23.0003C14.5836 23.1264 13.9247 23.0112 13.5751 22.9197C12.524 22.6446 11.3272 23.044 10.7425 24.073C8.90477 27.3074 7.67752 30.2371 8.54085 33.0594C8.9783 34.4897 9.88397 35.669 11.0464 36.7114C12.1932 37.7398 13.6836 38.7179 15.4462 39.7355L31.3359 48.9095C33.0985 49.9271 34.6908 50.7288 36.1549 51.2078C37.6388 51.6933 39.113 51.8879 40.5704 51.5516C43.4462 50.8882 45.3698 48.3605 47.252 45.1518C47.8507 44.1309 47.5983 42.8947 46.8345 42.122C46.5805 41.865 46.1513 41.352 45.9299 40.7165C45.7368 40.1618 45.6727 39.4575 46.193 38.5563C46.7133 37.655 47.3553 37.3584 47.9323 37.2483C48.5933 37.1223 49.2522 37.2375 49.6017 37.329C50.6528 37.6041 51.8496 37.2046 52.4343 36.1758C54.2721 32.9412 55.4994 30.0115 54.6361 27.1892C54.1985 25.759 53.2928 24.5798 52.1304 23.5374C50.9836 22.5089 49.4932 21.5307 47.7306 20.5131L31.8408 11.3391ZM44.014 25.4664C44.5799 24.4862 44.2213 23.2198 43.2131 22.6376C42.2048 22.0555 40.9287 22.3783 40.3628 23.3584L39.3382 25.1332C38.7723 26.1134 39.1308 27.3798 40.1391 27.962C41.1473 28.5441 42.4234 28.2214 42.9893 27.2412L44.014 25.4664ZM33.9911 38.6106C34.9994 39.1927 35.3579 40.4592 34.792 41.4394L33.7673 43.2142C33.2014 44.1944 31.9254 44.5171 30.9171 43.9349C29.9088 43.3528 29.5503 42.0864 30.1162 41.1062L31.1408 39.3314C31.7068 38.3512 32.9828 38.0285 33.9911 38.6106ZM39.9153 32.5655C40.4812 31.5853 40.1227 30.3189 39.1144 29.7367C38.1061 29.1546 36.8301 29.4773 36.2642 30.4575L34.2148 34.0071C33.6489 34.9873 34.0075 36.2537 35.0158 36.8358C36.024 37.418 37.3001 37.0953 37.866 36.1151L39.9153 32.5655Z" fill="var(--fill-0, #007CA2)"/>
</g>
</svg>
