<svg preserveAspectRatio="none" width="100%" height="100%" overflow="visible" style="display: block;" viewBox="0 0 25 25" fill="none" xmlns="http://www.w3.org/2000/svg">
<g id="chat-round-dots_svgrepo.com">
<path id="Vector" d="M12.5002 22.9173C18.2531 22.9173 22.9168 18.2536 22.9168 12.5007C22.9168 6.74768 18.2531 2.08398 12.5002 2.08398C6.74719 2.08398 2.0835 6.74768 2.0835 12.5007C2.0835 14.167 2.47477 15.7419 3.17043 17.1387C3.35531 17.5098 3.41684 17.9341 3.30966 18.3346L2.68924 20.6535C2.4199 21.66 3.3408 22.5809 4.3474 22.3116L6.66619 21.6912C7.06676 21.584 7.49101 21.6455 7.86217 21.8303C9.25888 22.5261 10.8338 22.9173 12.5002 22.9173Z" fill="var(--fill-0, white)"/>
<path id="Vector_2" opacity="0.5" d="M8.33333 12.5H8.34271M12.4906 12.5H12.5M16.6573 12.5H16.6667" stroke="var(--stroke-0, #007CA2)" stroke-width="2.08333" stroke-linecap="round"/>
</g>
</svg>
