<svg preserveAspectRatio="none" width="100%" height="100%" overflow="visible" style="display: block;" viewBox="0 0 42 42" fill="none" xmlns="http://www.w3.org/2000/svg">
<g id="Frame">
<path id="Vector" d="M19.25 38.5H9.625C8.46468 38.5 7.35188 38.0391 6.53141 37.2186C5.71094 36.3981 5.25 35.2853 5.25 34.125C5.25 32.9647 5.71094 31.8519 6.53141 31.0314C7.35188 30.2109 8.46468 29.75 9.625 29.75H17.5018" stroke="var(--stroke-0, #007CA2)" stroke-width="3.5" stroke-linecap="round" stroke-linejoin="round"/>
<path id="Vector_2" d="M36.7502 38.4999L33.4619 35.2134" stroke="var(--stroke-0, #007CA2)" stroke-width="3.5" stroke-linecap="round" stroke-linejoin="round"/>
<path id="Vector_3" d="M5.25 34.125V7.875C5.25 6.71468 5.71094 5.60188 6.53141 4.78141C7.35188 3.96094 8.46468 3.5 9.625 3.5H31.5C31.9641 3.5 32.4092 3.68437 32.7374 4.01256C33.0656 4.34075 33.25 4.78587 33.25 5.25V19.25" stroke="var(--stroke-0, #007CA2)" stroke-width="3.5" stroke-linecap="round" stroke-linejoin="round"/>
<path id="Vector_4" d="M29.75 36.75C32.6495 36.75 35 34.3995 35 31.5C35 28.6005 32.6495 26.25 29.75 26.25C26.8505 26.25 24.5 28.6005 24.5 31.5C24.5 34.3995 26.8505 36.75 29.75 36.75Z" stroke="var(--stroke-0, #007CA2)" stroke-width="3.5" stroke-linecap="round" stroke-linejoin="round"/>
</g>
</svg>
