<svg preserveAspectRatio="none" width="100%" height="100%" overflow="visible" style="display: block;" viewBox="0 0 21 21" fill="none" xmlns="http://www.w3.org/2000/svg">
<g id="ticket_svgrepo.com" clip-path="url(#clip0_573_488)">
<g id="Vector">
<path d="M10.2656 6.59396L8.95309 4.32065C8.71147 3.90214 8.85486 3.367 9.27337 3.12537C9.69187 2.88375 10.227 3.02714 10.4686 3.44565L11.7811 5.71896C12.0228 6.13747 11.8794 6.67261 11.4609 6.91424C11.0424 7.15586 10.5072 7.01247 10.2656 6.59396Z" fill="#DEF3FB"/>
<path d="M15.0781 14.9295L13.7656 12.6561C13.524 12.2376 13.6674 11.7025 14.0859 11.4609C14.5044 11.2192 15.0395 11.3626 15.2811 11.7811L16.5936 14.0545C16.8353 14.473 16.6919 15.0081 16.2734 15.2497C15.8549 15.4914 15.3197 15.348 15.0781 14.9295Z" fill="#DEF3FB"/>
<path d="M12.4531 10.3828L11.5781 8.86728C11.3365 8.44877 11.4799 7.91363 11.8984 7.67201C12.3169 7.43038 12.852 7.57377 13.0936 7.99228L13.9686 9.50782C14.2103 9.92633 14.0669 10.4615 13.6484 10.7031C13.2299 10.9447 12.6947 10.8013 12.4531 10.3828Z" fill="#DEF3FB"/>
<path d="M15.0466 7.87508C14.6292 7.15204 14.5676 6.44801 14.696 5.84172L14.8302 5.21287C14.8679 5.02191 14.8963 4.84553 14.9075 4.67135C14.9286 4.34207 14.8737 4.17151 14.795 4.06573C14.2309 3.30714 13.8604 3.14421 13.5185 3.13245C13.0641 3.1169 12.3863 3.34885 11.1728 4.04947L4.5772 7.85743C3.36361 8.5581 2.82385 9.02909 2.61017 9.4304C2.44941 9.73235 2.40526 10.1347 2.78017 11.0025C2.83247 11.1235 2.95272 11.2564 3.24843 11.4027C3.56128 11.5575 3.91592 11.6575 4.36776 11.8047L4.47832 11.8431C5.02897 12.0485 5.56202 12.4473 5.95336 13.1251C6.3447 13.8029 6.42355 14.4639 6.32608 15.0435L6.30403 15.1584C6.20556 15.6233 6.1149 15.9805 6.09252 16.3288C6.07137 16.6581 6.12633 16.8287 6.20498 16.9344L6.30864 17.0696C6.81544 17.7127 7.16093 17.8567 7.48145 17.8677C7.93584 17.8833 8.6136 17.6514 9.8272 16.9507L16.4228 13.1427C17.6363 12.4421 18.1761 11.9711 18.3898 11.5698C18.5506 11.2678 18.5947 10.8655 18.2198 9.99767L18.1968 9.95173C18.1348 9.84325 18.0104 9.72552 17.7516 9.59747C17.5951 9.52007 17.4282 9.45641 17.2439 9.39364L16.6322 9.19546C16.043 9.00349 15.4641 8.59813 15.0466 7.87508ZM16.5622 7.00008C16.754 7.33226 16.9769 7.46736 17.1741 7.53162C17.5299 7.64749 18.0668 7.80089 18.5277 8.02891C19.0057 8.26544 19.5419 8.6449 19.8265 9.30371C20.2904 10.3777 20.4609 11.4032 19.9345 12.392C19.461 13.2814 18.4997 13.9644 17.2978 14.6583L10.7022 18.4662C9.50028 19.1602 8.42824 19.6512 7.4212 19.6166C6.30171 19.5781 5.4991 18.9175 4.80097 17.9787C4.37274 17.4028 4.31188 16.7489 4.34607 16.2167C4.37903 15.7035 4.51462 15.1619 4.59216 14.7958L4.6058 14.7169C4.63091 14.5266 4.60563 14.2907 4.43782 14.0001C4.27 13.7094 4.07842 13.5696 3.90101 13.4962L3.82585 13.4685C3.47008 13.3527 2.93322 13.1993 2.47233 12.9713C1.99429 12.7347 1.45843 12.3551 1.17382 11.6963C0.709852 10.6223 0.53909 9.59692 1.06548 8.60816C1.53902 7.71872 2.50028 7.03582 3.7022 6.34189L10.2978 2.53393C11.4997 1.84 12.5718 1.34899 13.5788 1.3836C14.6983 1.42209 15.5012 2.08248 16.1993 3.02131C16.6275 3.59714 16.6879 4.25097 16.6538 4.78322C16.6208 5.29643 16.4854 5.83826 16.4078 6.20434C16.3649 6.40725 16.3704 6.6679 16.5622 7.00008Z" fill="#DEF3FB"/>
</g>
</g>
<defs>
<clipPath id="clip0_573_488">
<rect width="21" height="21" fill="white"/>
</clipPath>
</defs>
</svg>
