<svg preserveAspectRatio="none" width="100%" height="100%" overflow="visible" style="display: block;" viewBox="0 0 11 11" fill="none" xmlns="http://www.w3.org/2000/svg">
<g id="filter_svgrepo.com">
<path id="Vector" fill-rule="evenodd" clip-rule="evenodd" d="M6.87485 4.81278C7.22034 4.81273 7.5566 4.70119 7.83363 4.49475C8.11067 4.28832 8.31371 3.998 8.41256 3.66695H9.62485C9.74641 3.66695 9.86299 3.61866 9.94894 3.53271C10.0349 3.44675 10.0832 3.33018 10.0832 3.20862C10.0832 3.08706 10.0349 2.97048 9.94894 2.88453C9.86299 2.79857 9.74641 2.75029 9.62485 2.75029H8.41256C8.31354 2.41941 8.11044 2.12929 7.83342 1.92303C7.55639 1.71676 7.22023 1.60536 6.87485 1.60536C6.52947 1.60536 6.19331 1.71676 5.91628 1.92303C5.63926 2.12929 5.43616 2.41941 5.33714 2.75029H1.37485C1.25329 2.75029 1.13671 2.79857 1.05076 2.88453C0.964806 2.97048 0.916517 3.08706 0.916517 3.20862C0.916517 3.33018 0.964806 3.44675 1.05076 3.53271C1.13671 3.61866 1.25329 3.66695 1.37485 3.66695H5.33714C5.436 3.998 5.63903 4.28832 5.91607 4.49475C6.1931 4.70119 6.52936 4.81273 6.87485 4.81278ZM1.37485 7.33362C1.25329 7.33362 1.13671 7.38191 1.05076 7.46786C0.964806 7.55381 0.916517 7.67039 0.916517 7.79195C0.916517 7.91351 0.964806 8.03009 1.05076 8.11604C1.13671 8.202 1.25329 8.25028 1.37485 8.25028H2.35798C2.45699 8.58116 2.66009 8.87128 2.93712 9.07754C3.21414 9.2838 3.55031 9.39521 3.89568 9.39521C4.24106 9.39521 4.57723 9.2838 4.85425 9.07754C5.13127 8.87128 5.33438 8.58116 5.43339 8.25028H9.62485C9.74641 8.25028 9.86299 8.202 9.94894 8.11604C10.0349 8.03009 10.0832 7.91351 10.0832 7.79195C10.0832 7.67039 10.0349 7.55381 9.94894 7.46786C9.86299 7.38191 9.74641 7.33362 9.62485 7.33362H5.43339C5.33438 7.00274 5.13127 6.71262 4.85425 6.50636C4.57723 6.3001 4.24106 6.18869 3.89568 6.18869C3.55031 6.18869 3.21414 6.3001 2.93712 6.50636C2.66009 6.71262 2.45699 7.00274 2.35798 7.33362H1.37485Z" fill="var(--fill-0, white)"/>
</g>
</svg>
