<svg preserveAspectRatio="none" width="100%" height="100%" overflow="visible" style="display: block;" viewBox="0 0 41 41" fill="none" xmlns="http://www.w3.org/2000/svg">
<g id="money-receive_svgrepo.com">
<path id="Vector" d="M21.9272 27.8303V29.6344C21.9272 29.9259 21.8113 30.2052 21.6053 30.4111C21.3992 30.6173 21.1197 30.7331 20.8283 30.7331C20.5368 30.7331 20.2574 30.6173 20.0514 30.4111C19.8453 30.2052 19.7296 29.9259 19.7296 29.6344V27.7809C19.0023 27.661 18.3066 27.3958 17.6839 27.0014C17.0613 26.607 16.5243 26.0914 16.1051 25.4851C15.937 25.3014 15.8435 25.0615 15.8428 24.8125C15.8426 24.6705 15.8713 24.5299 15.9271 24.3992C15.9828 24.2687 16.0647 24.1506 16.1674 24.0525C16.2701 23.9545 16.3916 23.878 16.5247 23.8283C16.6578 23.7785 16.7996 23.7563 16.9415 23.7631C17.0824 23.7623 17.2216 23.7928 17.3492 23.8523C17.4769 23.9118 17.5898 23.9989 17.6796 24.1075C18.2041 24.7927 18.9162 25.3109 19.7296 25.5997V21.4344C17.5484 20.5652 16.4496 19.3023 16.4496 17.6459C16.4824 16.7591 16.8309 15.9133 17.4323 15.2608C18.0337 14.6083 18.8485 14.1921 19.7296 14.0872V12.2666C19.7296 11.9752 19.8453 11.6955 20.0514 11.4895C20.2574 11.2834 20.5368 11.168 20.8283 11.168C21.1197 11.168 21.3992 11.2834 21.6053 11.4895C21.8113 11.6955 21.9272 11.9752 21.9272 12.2666V14.0708C22.5401 14.1652 23.1276 14.3821 23.6545 14.709C24.1814 15.0359 24.6372 15.4659 24.994 15.9731C25.1387 16.1628 25.2241 16.3908 25.2399 16.6289C25.2443 16.7695 25.2205 16.9097 25.1697 17.0409C25.1188 17.1721 25.0423 17.2915 24.9443 17.3925C24.8464 17.4934 24.7292 17.5739 24.5998 17.6287C24.4702 17.6834 24.331 17.7116 24.1903 17.7115C24.0437 17.7097 23.899 17.6765 23.7662 17.6142C23.6332 17.5521 23.5151 17.4622 23.4196 17.3508C23.0285 16.8623 22.513 16.488 21.9272 16.2681V19.9581L22.3372 20.1223C24.42 20.9259 25.7156 22.1065 25.7156 23.9925C25.6874 24.9929 25.2805 25.9456 24.5775 26.6578C23.8744 27.3701 22.9271 27.7891 21.9272 27.8303ZM19.7296 19.0072V16.3502C19.4649 16.4462 19.237 16.623 19.0781 16.8556C18.9193 17.0879 18.8375 17.3644 18.844 17.6459C18.8575 17.9247 18.947 18.1945 19.1033 18.4259C19.2595 18.6573 19.4761 18.8413 19.7296 18.958V19.0072ZM23.3376 24.0417C23.3376 23.2381 22.78 22.7625 21.9272 22.4017V25.6817C22.3299 25.6251 22.6971 25.4209 22.9577 25.1087C23.2182 24.7966 23.3537 24.3987 23.3376 23.9925V24.0417Z" fill="var(--fill-0, #007CA2)"/>
<path id="Vector (Stroke)" d="M2.25488 29.4712V13.0712C2.25488 10.842 3.14013 8.70359 4.71628 7.12742C6.29246 5.55127 8.43083 4.66602 10.6601 4.66602H21.4506C22.4696 4.66602 23.2954 5.49185 23.2954 6.51082C23.2954 7.52978 22.4696 8.35562 21.4506 8.35562H10.6601C9.40969 8.35562 8.21015 8.85266 7.32583 9.73696C6.44153 10.6213 5.94448 11.8208 5.94448 13.0712V29.4712C5.94458 30.7214 6.44168 31.9203 7.32583 32.8045C8.21014 33.6888 9.4097 34.1858 10.6601 34.1858H30.3393C31.5898 34.1858 32.7894 33.6888 33.6735 32.8045C34.5577 31.9204 35.0548 30.7215 35.0549 29.4712V19.5155C35.0551 18.4967 35.8808 17.6707 36.8997 17.6707C37.9185 17.6707 38.7443 18.4967 38.7445 19.5155V29.4712C38.7444 31.7001 37.8593 33.8379 36.2831 35.414C34.7069 36.9903 32.5685 37.8754 30.3393 37.8754H10.6601C8.43081 37.8754 6.29247 36.9903 4.71628 35.414C3.14022 33.838 2.25498 31.7002 2.25488 29.4712Z" fill="var(--fill-0, #007CA2)"/>
<path id="Vector (Stroke)_2" d="M35.5949 3.48375C36.3154 2.76323 37.4839 2.76323 38.2045 3.48375C38.9245 4.20418 38.9245 5.37186 38.2045 6.09229L28.9214 15.3754C28.201 16.0954 27.0333 16.0954 26.3128 15.3754C25.5923 14.6548 25.5923 13.4863 26.3128 12.7658L35.5949 3.48375Z" fill="var(--fill-0, #007CA2)"/>
<path id="Vector (Stroke)_3" d="M25.7725 6.64167C25.7725 5.62271 26.5983 4.79688 27.6173 4.79688C28.6362 4.79688 29.4621 5.62271 29.4621 6.64167V12.2261H35.0465C36.0655 12.2261 36.8913 13.052 36.8913 14.0709C36.8913 15.0899 36.0654 15.9157 35.0465 15.9157H27.6173C26.5983 15.9157 25.7725 15.0899 25.7725 14.0709V6.64167Z" fill="var(--fill-0, #007CA2)"/>
</g>
</svg>
