<svg preserveAspectRatio="none" width="100%" height="100%" overflow="visible" style="display: block;" viewBox="0 0 42 42" fill="none" xmlns="http://www.w3.org/2000/svg">
<g id="Frame">
<path id="Vector" d="M10.5 38.5C13.3995 38.5 15.75 36.1495 15.75 33.25C15.75 30.3505 13.3995 28 10.5 28C7.60051 28 5.25 30.3505 5.25 33.25C5.25 36.1495 7.60051 38.5 10.5 38.5Z" stroke="var(--stroke-0, #007CA2)" stroke-width="3.5" stroke-linecap="round" stroke-linejoin="round"/>
<path id="Vector_2" d="M15.75 33.25H30.625C32.2495 33.25 33.8074 32.6047 34.956 31.456C36.1047 30.3074 36.75 28.7495 36.75 27.125C36.75 25.5005 36.1047 23.9426 34.956 22.794C33.8074 21.6453 32.2495 21 30.625 21H11.375C9.75055 21 8.19263 20.3547 7.04397 19.206C5.89531 18.0574 5.25 16.4995 5.25 14.875C5.25 13.2505 5.89531 11.6926 7.04397 10.544C8.19263 9.39531 9.75055 8.75 11.375 8.75H26.25" stroke="var(--stroke-0, #007CA2)" stroke-width="3.5" stroke-linecap="round" stroke-linejoin="round"/>
<path id="Vector_3" d="M31.5 14C34.3995 14 36.75 11.6495 36.75 8.75C36.75 5.85051 34.3995 3.5 31.5 3.5C28.6005 3.5 26.25 5.85051 26.25 8.75C26.25 11.6495 28.6005 14 31.5 14Z" stroke="var(--stroke-0, #007CA2)" stroke-width="3.5" stroke-linecap="round" stroke-linejoin="round"/>
</g>
</svg>
