<svg preserveAspectRatio="none" width="100%" height="100%" overflow="visible" style="display: block;" viewBox="3.6 4.8 38.4 38.4" fill="none" xmlns="http://www.w3.org/2000/svg">
<g id="cart_svgrepo.com">
<path id="Vector" fill-rule="evenodd" clip-rule="evenodd" d="M9.67737 9.59961C8.98021 9.59961 8.41504 10.2001 8.41504 10.9408C8.41504 11.6815 8.98021 12.282 9.67737 12.282H12.4627L15.9704 28.2539C16.4925 30.6314 18.4567 32.3277 20.7414 32.3973V32.3996H30.6162C33.0763 32.3996 35.1783 30.5161 35.5932 27.9398L37.1782 18.0991C37.4421 16.4607 36.2542 14.9643 34.6897 14.9643H15.6443L14.6937 10.636C14.5604 10.029 14.051 9.59961 13.4644 9.59961H9.67737ZM16.2333 17.6467L18.429 27.6445C18.6956 28.8584 19.7143 29.7173 20.8876 29.7173H30.6162C31.8463 29.7173 32.8973 28.7755 33.1048 27.4873L34.6897 17.6467H16.2333Z" fill="var(--fill-0, #007CA2)"/>
<path id="Vector_2" d="M18.0152 38.3996C19.3407 38.3996 20.4152 37.3251 20.4152 35.9996C20.4152 34.6741 19.3407 33.5996 18.0152 33.5996C16.6898 33.5996 15.6152 34.6741 15.6152 35.9996C15.6152 37.3251 16.6898 38.3996 18.0152 38.3996Z" fill="var(--fill-0, #007CA2)"/>
<path id="Vector_3" d="M32.4151 38.3996C33.7407 38.3996 34.8151 37.3251 34.8151 35.9996C34.8151 34.6741 33.7407 33.5996 32.4151 33.5996C31.0896 33.5996 30.0151 34.6741 30.0151 35.9996C30.0151 37.3251 31.0896 38.3996 32.4151 38.3996Z" fill="var(--fill-0, #007CA2)"/>
</g>
</svg>
