<svg preserveAspectRatio="none" width="100%" height="100%" overflow="visible" style="display: block;" viewBox="6.5 6.5 35 35" fill="none" xmlns="http://www.w3.org/2000/svg">
<g id="avatar-default_svgrepo.com">
<path id="Vector" d="M21.2725 24.9999H26.7276C30.6801 25.0001 33.9093 28.2809 33.9093 32.4159V33.3505C33.9093 34.8996 32.7109 36.0907 31.2725 36.0907H16.7276C15.2892 36.0907 14.0909 34.8996 14.0909 33.3505V32.4159L14.1007 32.0302C14.294 28.0785 17.4437 25 21.2725 24.9999ZM24.0001 11.9091C26.4327 11.9091 28.4542 13.9476 28.4542 16.5194C28.4542 19.0913 26.4328 21.1297 24.0001 21.1298C21.5674 21.1298 19.545 19.0913 19.545 16.5194C19.545 13.9476 21.5674 11.9091 24.0001 11.9091Z" stroke="var(--stroke-0, #007CA2)" stroke-width="2"/>
</g>
</svg>
