<svg preserveAspectRatio="none" width="100%" height="100%" overflow="visible" style="display: block;" viewBox="0 0 42 42" fill="none" xmlns="http://www.w3.org/2000/svg">
<g id="Group">
<path id="Path" d="M29.75 38.5H33.25C36.1495 38.5 38.5 36.1495 38.5 33.25V29.75" stroke="var(--stroke-0, #36515C)" stroke-width="2.625" stroke-linecap="round" stroke-linejoin="round"/>
<path id="Path_2" d="M29.75 3.5H33.25C36.1495 3.5 38.5 5.85051 38.5 8.75V12.25" stroke="var(--stroke-0, #36515C)" stroke-width="2.625" stroke-linecap="round" stroke-linejoin="round"/>
<path id="Path_3" d="M3.5 29.75V33.25C3.5 36.1495 5.85051 38.5 8.75 38.5H12.25" stroke="var(--stroke-0, #36515C)" stroke-width="2.625" stroke-linecap="round" stroke-linejoin="round"/>
<path id="Path_4" d="M3.5 12.25V8.75C3.5 5.85051 5.85051 3.5 8.75 3.5H12.25" stroke="var(--stroke-0, #36515C)" stroke-width="2.625" stroke-linecap="round" stroke-linejoin="round"/>
<path id="Path_5" fill-rule="evenodd" clip-rule="evenodd" d="M17.5401 24.5H12.8825C11.7527 24.5 10.7496 23.777 10.3923 22.7051L8.84177 18.0534C8.66389 17.5198 8.75337 16.9331 9.08226 16.4768C9.41115 16.0205 9.93935 15.75 10.5019 15.75H11.5033C12.4975 15.75 13.4065 16.3118 13.8511 17.2011L14.8755 19.25H30.6255C32.0753 19.25 33.2505 20.4253 33.2505 21.875V21.875C33.2505 23.3247 32.0753 24.5 30.6255 24.5H25.3755L18.824 31.0515C18.5368 31.3387 18.1474 31.5 17.7412 31.5H16.365C15.8459 31.5 15.3644 31.2294 15.0944 30.786C14.8245 30.3426 14.8052 29.7906 15.0436 29.3294L17.5401 24.5Z" stroke="var(--stroke-0, #36515C)" stroke-width="2.625" stroke-linecap="round" stroke-linejoin="round"/>
<path id="Path_6" d="M27.125 19.25L20.5734 12.6985C20.2863 12.4113 19.8968 12.25 19.4907 12.25H18.1144C17.5954 12.25 17.1138 12.5206 16.8439 12.964C16.574 13.4074 16.5547 13.9594 16.7931 14.4206L19.2895 19.25" stroke="var(--stroke-0, #36515C)" stroke-width="2.625" stroke-linecap="round" stroke-linejoin="round"/>
<g id="Path_7">
</g>
</g>
</svg>
