<svg preserveAspectRatio="none" width="100%" height="100%" overflow="visible" style="display: block;" viewBox="0 0 38 38" fill="none" xmlns="http://www.w3.org/2000/svg">
<g id="google-chrome_svgrepo.com">
<path id="Vector" fill-rule="evenodd" clip-rule="evenodd" d="M36.4158 19.0004C36.4158 28.6193 28.618 36.4171 18.9991 36.4171C9.38016 36.4171 1.58245 28.6193 1.58245 19.0004C1.58245 9.38149 9.38016 1.58378 18.9991 1.58378C28.618 1.58378 36.4158 9.38149 36.4158 19.0004ZM33.2491 19.0004C33.2491 26.8706 26.8692 33.2504 18.9991 33.2504C18.6943 33.2504 18.3917 33.2409 18.0915 33.2219L24.3058 22.4588C24.955 21.4644 25.3324 20.2766 25.3324 19.0004C25.3324 17.8468 25.024 16.7652 24.4852 15.8338H32.896C33.127 16.8522 33.2491 17.9121 33.2491 19.0004ZM4.74912 19.0004C4.74912 25.4033 8.97191 30.8197 14.7844 32.6168L18.9893 25.3338C16.5242 25.33 14.3894 23.918 13.3461 21.8591L7.13599 11.1029C5.62809 13.3634 4.74912 16.0792 4.74912 19.0004ZM9.31611 8.5456C11.858 6.19023 15.2604 4.75044 18.9991 4.75044C24.5941 4.75044 29.4361 7.97499 31.7679 12.6671H18.9991C16.6588 12.6671 14.6149 13.9365 13.5185 15.8244L9.31611 8.5456ZM16.2493 20.5719L16.2569 20.5675L16.144 20.3719C15.9444 19.9569 15.8324 19.4917 15.8324 19.0004C15.8324 17.2515 17.2502 15.8338 18.9991 15.8338C20.7481 15.8338 22.1658 17.2515 22.1658 19.0004C22.1658 19.572 22.0143 20.1083 21.7494 20.5713L21.7416 20.5668L21.6162 20.7837C21.046 21.619 20.0865 22.1671 18.9991 22.1671C17.8221 22.1671 16.7951 21.5251 16.2493 20.5719Z" fill="var(--fill-0, #0F0F0F)"/>
</g>
</svg>
