<svg preserveAspectRatio="none" width="100%" height="100%" overflow="visible" style="display: block;" viewBox="0 0 42 42" fill="none" xmlns="http://www.w3.org/2000/svg">
<g id="calendar-lines_svgrepo.com">
<path id="Vector (Stroke)" d="M31.9 16.4H7.1V28.49C7.1 29.3835 7.10107 29.9605 7.13694 30.3996C7.17133 30.8206 7.2299 30.9769 7.26893 31.0535L7.32887 31.1607C7.45649 31.3687 7.63142 31.5436 7.83928 31.6711L7.94645 31.7311L8.02153 31.7632C8.11747 31.7977 8.28441 31.8372 8.60035 31.8631C9.0395 31.8989 9.61648 31.9 10.51 31.9H28.49C29.3835 31.9 29.9605 31.8989 30.3996 31.8631C30.8206 31.8287 30.9769 31.7701 31.0536 31.7311C31.3451 31.5825 31.5826 31.3451 31.7311 31.0535C31.7701 30.9769 31.8287 30.8206 31.8631 30.3996C31.8989 29.9605 31.9 29.3835 31.9 28.49V16.4ZM16.9171 25.7006C17.773 25.7008 18.4666 26.3952 18.4665 27.2512C18.4662 28.1071 17.7724 28.8007 16.9165 28.8006L11.75 28.8C10.894 28.7999 10.2 28.1059 10.2 27.25C10.2001 26.394 10.8941 25.7 11.75 25.7L16.9171 25.7006ZM27.25 19.5024C28.106 19.5025 28.8001 20.1964 28.8 21.0524C28.7999 21.9084 28.1059 22.6024 27.25 22.6024L11.75 22.6C10.894 22.5999 10.2 21.9059 10.2 21.05C10.2001 20.194 10.8941 19.5 11.75 19.5L27.25 19.5024ZM10.51 10.2C9.61649 10.2 9.0395 10.2011 8.60035 10.2369C8.17945 10.2713 8.02311 10.3299 7.94645 10.3689C7.65481 10.5175 7.41752 10.7548 7.26893 11.0464C7.22988 11.1231 7.17133 11.2795 7.13694 11.7004C7.1054 12.0865 7.1019 12.5792 7.10121 13.3H31.8988C31.8981 12.5792 31.8946 12.0865 31.8631 11.7004C31.8287 11.2794 31.7701 11.1231 31.7311 11.0464C31.6012 10.7915 31.4034 10.5778 31.1607 10.4289L31.0536 10.3689C30.9769 10.3299 30.8206 10.2713 30.3996 10.2369C29.9605 10.2011 29.3835 10.2 28.49 10.2H10.51ZM35 28.49C35 29.3324 35.0013 30.0575 34.9528 30.6521C34.9027 31.2649 34.7921 31.8748 34.4932 32.4613C34.0475 33.3361 33.3361 34.0475 32.4613 34.4932C31.8748 34.7921 31.2649 34.9027 30.6521 34.9528C30.0575 35.0013 29.3324 35 28.49 35H10.51C9.66758 35 8.94253 35.0013 8.34787 34.9528C7.73508 34.9027 7.12523 34.7921 6.53873 34.4932V34.4926C5.66387 34.0468 4.95246 33.3359 4.50678 32.4613C4.20792 31.8748 4.0973 31.2649 4.04723 30.6521C3.99866 30.0575 4 29.3324 4 28.49V13.61C4 12.7676 3.99866 12.0425 4.04723 11.4479C4.0973 10.8351 4.20794 10.2252 4.50678 9.63873C4.95256 8.76389 5.66389 8.05256 6.53873 7.60678C7.12523 7.30794 7.73509 7.19729 8.34787 7.14723C8.86829 7.10472 9.48858 7.10164 10.2 7.10121V5.55C10.2 4.69396 10.894 4 11.75 4C12.606 4 13.3 4.69396 13.3 5.55V7.1H25.7V5.55C25.7 4.69396 26.394 4 27.25 4C28.106 4 28.8 4.69396 28.8 5.55V7.10121C29.5114 7.10164 30.1317 7.10472 30.6521 7.14723C31.2649 7.19729 31.8748 7.30792 32.4613 7.60678C33.3359 8.05246 34.0468 8.76387 34.4926 9.63873C34.7915 10.2252 34.9027 10.8351 34.9528 11.4479C35.0013 12.0425 35 12.7676 35 13.61V28.49Z" fill="var(--fill-0, #36515C)"/>
</g>
</svg>
