<svg preserveAspectRatio="none" width="100%" height="100%" overflow="visible" style="display: block;" viewBox="0 0 33.6 23.52" fill="none" xmlns="http://www.w3.org/2000/svg">
<g id="visa">
<path id="Rectangle-1" d="M31.808 0H1.792C0.802306 0 0 0.89429 0 1.99745V21.5225C0 22.6257 0.802306 23.52 1.792 23.52H31.808C32.7977 23.52 33.6 22.6257 33.6 21.5225V1.99745C33.6 0.89429 32.7977 0 31.808 0Z" fill="var(--fill-0, white)"/>
<path id="Shape" opacity="0.9" d="M12.4634 16.2216L13.958 7.37695H16.3484L14.8528 16.2216H12.4634Z" fill="var(--fill-0, #0E4595)"/>
<path id="path13" opacity="0.9" d="M23.489 7.56672C23.0154 7.38753 22.2733 7.19524 21.3465 7.19524C18.9845 7.19524 17.3206 8.39483 17.3065 10.1141C17.2932 11.385 18.4943 12.0939 19.401 12.517C20.3315 12.9505 20.6443 13.227 20.6399 13.6141C20.634 14.207 19.8968 14.4778 19.2098 14.4778C18.253 14.4778 17.7447 14.3438 16.9596 14.0136L16.6516 13.873L16.3161 15.853C16.8744 16.0998 17.9069 16.3137 18.9789 16.3248C21.4917 16.3248 23.1229 15.139 23.1415 13.3031C23.1505 12.2969 22.5136 11.5312 21.1345 10.9C20.2989 10.4908 19.7872 10.2178 19.7926 9.80351C19.7926 9.43588 20.2258 9.04276 21.1616 9.04276C21.9433 9.03052 22.5095 9.20243 22.9507 9.38162L23.165 9.48368L23.489 7.56672Z" fill="var(--fill-0, #0E4595)"/>
<path id="Path" opacity="0.9" d="M29.6403 7.37695H27.7931C27.2209 7.37695 26.7927 7.53445 26.5414 8.11041L22.9912 16.2159H25.5014C25.5014 16.2159 25.9119 15.1261 26.0047 14.8868C26.279 14.8868 28.7175 14.8906 29.0661 14.8906C29.1376 15.2002 29.357 16.2159 29.357 16.2159H31.5751L29.6403 7.37695ZM26.7096 13.0881C26.9073 12.5785 27.662 10.6157 27.662 10.6157C27.6479 10.6392 27.8582 10.1036 27.979 9.77152L28.1406 10.5341C28.1406 10.5341 28.5983 12.6453 28.6939 13.088H26.7096V13.0881Z" fill="var(--fill-0, #0E4595)"/>
<path id="path16" opacity="0.9" d="M2.05544 7.375L2.0249 7.55908C2.96978 7.78974 3.81373 8.12354 4.5526 8.53884L6.67369 16.2056L9.20288 16.2026L12.9663 7.375H10.4341L8.09373 13.4064L7.84435 12.1807C7.83282 12.1433 7.82033 12.1058 7.80752 12.0682L6.99368 8.12171C6.84897 7.56166 6.42926 7.39452 5.91008 7.375H2.05544Z" fill="var(--fill-0, #0E4595)"/>
</g>
</svg>
