<svg preserveAspectRatio="none" width="100%" height="100%" overflow="visible" style="display: block;" viewBox="0 0 33.6 33.6" fill="none" xmlns="http://www.w3.org/2000/svg">
<g id="paypal_svgrepo.com" clip-path="url(#clip0_301_249)">
<path id="Vector" d="M31.2827 5.50391H2.31714C1.19733 5.50391 0.289551 6.41169 0.289551 7.53149V26.0694C0.289551 27.1892 1.19733 28.097 2.31714 28.097H31.2827C32.4025 28.097 33.3102 27.1892 33.3102 26.0694V7.53149C33.3102 6.41169 32.4025 5.50391 31.2827 5.50391Z" fill="var(--fill-0, white)" stroke="var(--stroke-0, #F3F3F3)" stroke-width="0.57931"/>
<path id="Vector_2" fill-rule="evenodd" clip-rule="evenodd" d="M15.3161 16.9494L15.4624 16.0175L15.1365 16.0099H13.5806L14.6619 9.13379C14.6653 9.11297 14.6762 9.09364 14.6921 9.07989C14.7081 9.06614 14.7284 9.05859 14.7497 9.05859H17.3734C18.2445 9.05859 18.8456 9.24034 19.1594 9.5991C19.3065 9.7674 19.4002 9.94332 19.4456 10.1369C19.4931 10.34 19.4939 10.5826 19.4475 10.8786L19.4442 10.9001V11.0898L19.5913 11.1734C19.7152 11.2393 19.8137 11.3147 19.8892 11.4011C20.015 11.545 20.0964 11.728 20.1308 11.9447C20.1664 12.1677 20.1546 12.4332 20.0964 12.7336C20.0293 13.0792 19.9208 13.3802 19.7742 13.6264C19.6394 13.8533 19.4677 14.0416 19.2637 14.1874C19.0691 14.3261 18.8377 14.4313 18.5762 14.4986C18.3227 14.5647 18.0338 14.5981 17.7169 14.5981H17.5127C17.3668 14.5981 17.2249 14.6509 17.1136 14.7454C17.002 14.8419 16.9282 14.9737 16.9055 15.1179L16.8901 15.2018L16.6316 16.8442L16.6199 16.9045C16.6168 16.9236 16.6115 16.9331 16.6036 16.9395C16.5967 16.9454 16.5867 16.9494 16.5768 16.9494H15.3161Z" fill="var(--fill-0, #28356A)"/>
<path id="Vector_3" fill-rule="evenodd" clip-rule="evenodd" d="M19.7304 10.9219C19.7227 10.9721 19.7137 11.0234 19.7036 11.0761C19.3577 12.8577 18.1739 13.4732 16.6621 13.4732H15.8923C15.7074 13.4732 15.5515 13.6077 15.5228 13.7906L15.0171 17.0078C14.9984 17.128 15.0906 17.2361 15.2114 17.2361H16.5767C16.7384 17.2361 16.8757 17.1183 16.9012 16.9585L16.9146 16.8889L17.1716 15.253L17.1882 15.1632C17.2133 15.0028 17.351 14.8849 17.5126 14.8849H17.7168C19.0396 14.8849 20.0751 14.3464 20.3778 12.7878C20.5041 12.1367 20.4387 11.5931 20.1042 11.2108C20.003 11.0955 19.8774 10.9998 19.7304 10.9219Z" fill="var(--fill-0, #298FC2)"/>
<path id="Vector_4" fill-rule="evenodd" clip-rule="evenodd" d="M19.3687 10.7769C19.3158 10.7614 19.2613 10.7474 19.2053 10.7348C19.1491 10.7224 19.0915 10.7115 19.0322 10.7019C18.8247 10.6683 18.5972 10.6523 18.3536 10.6523H16.2972C16.2465 10.6523 16.1984 10.6638 16.1554 10.6846C16.0605 10.7303 15.99 10.8203 15.973 10.9306L15.5355 13.7094L15.5229 13.7904C15.5517 13.6075 15.7076 13.4728 15.8924 13.4728H16.6622C18.174 13.4728 19.3578 12.8571 19.7038 11.0758C19.7141 11.0231 19.7228 10.9718 19.7306 10.9216C19.6431 10.875 19.5483 10.8352 19.4462 10.8012C19.421 10.7928 19.3949 10.7847 19.3687 10.7769Z" fill="var(--fill-0, #22284F)"/>
<path id="Vector_5" fill-rule="evenodd" clip-rule="evenodd" d="M15.9729 10.9292C15.99 10.8189 16.0603 10.7289 16.1552 10.6835C16.1986 10.6627 16.2464 10.6512 16.297 10.6512H18.3535C18.5971 10.6512 18.8245 10.6672 19.0321 10.7009C19.0914 10.7104 19.1489 10.7214 19.2052 10.7337C19.2611 10.7463 19.3157 10.7603 19.3686 10.7757C19.3948 10.7836 19.4208 10.7918 19.4463 10.7999C19.5484 10.8338 19.6433 10.8739 19.7308 10.9202C19.8337 10.2619 19.7299 9.81361 19.375 9.4077C18.9837 8.96078 18.2774 8.76953 17.3736 8.76953H14.7499C14.5653 8.76953 14.4079 8.90413 14.3793 9.08736L13.2865 16.0342C13.2649 16.1716 13.3707 16.2956 13.5089 16.2956H15.1286L15.9729 10.9292Z" fill="var(--fill-0, #28356A)"/>
<path id="Vector_6" fill-rule="evenodd" clip-rule="evenodd" d="M7.58582 18.8398H5.67287C5.54195 18.8398 5.43061 18.9351 5.41017 19.0648L4.63647 23.984C4.62112 24.0812 4.6961 24.1686 4.79427 24.1686H5.7075C5.83839 24.1686 5.94974 24.0733 5.97018 23.9434L6.17885 22.6166C6.19895 22.4867 6.31053 22.3913 6.44122 22.3913H7.04677C8.30689 22.3913 9.0341 21.7798 9.22411 20.568C9.30968 20.0378 9.2277 19.6213 8.98011 19.3296C8.70824 19.0092 8.22602 18.8398 7.58582 18.8398ZM7.80648 20.6365C7.70186 21.3248 7.17741 21.3248 6.67034 21.3248H6.38161L6.58414 20.0392C6.59619 19.9615 6.66327 19.9043 6.74165 19.9043H6.87397C7.21941 19.9043 7.54527 19.9043 7.71362 20.1018C7.81407 20.2196 7.84477 20.3946 7.80648 20.6365Z" fill="var(--fill-0, #28356A)"/>
<path id="Vector_7" fill-rule="evenodd" clip-rule="evenodd" d="M13.3528 20.5767H12.4367C12.3587 20.5767 12.2912 20.6339 12.2792 20.7116L12.2387 20.9685L12.1747 20.8754C11.9764 20.5867 11.5341 20.4902 11.0927 20.4902C10.0804 20.4902 9.21582 21.2592 9.04742 22.3377C8.95989 22.8757 9.08432 23.3902 9.38869 23.749C9.66786 24.0788 10.0673 24.2163 10.5425 24.2163C11.3582 24.2163 11.8104 23.6903 11.8104 23.6903L11.7696 23.9456C11.7542 24.0432 11.8292 24.1307 11.9268 24.1307H12.7519C12.8831 24.1307 12.9939 24.0354 13.0147 23.9055L13.5097 20.7612C13.5254 20.6644 13.4506 20.5767 13.3528 20.5767ZM12.0758 22.3647C11.9875 22.8894 11.5722 23.2418 11.0423 23.2418C10.7764 23.2418 10.5638 23.1562 10.4272 22.9941C10.2918 22.8331 10.2405 22.604 10.2834 22.3487C10.366 21.8283 10.7884 21.4645 11.3101 21.4645C11.5702 21.4645 11.7816 21.5512 11.921 21.7147C12.0605 21.8799 12.1159 22.1105 12.0758 22.3647Z" fill="var(--fill-0, #28356A)"/>
<path id="Vector_8" fill-rule="evenodd" clip-rule="evenodd" d="M18.1611 20.6562H17.2405C17.1527 20.6562 17.0702 20.7 17.0205 20.7733L15.7508 22.6487L15.2126 20.8464C15.1788 20.7336 15.075 20.6562 14.9575 20.6562H14.053C13.943 20.6562 13.8667 20.764 13.9016 20.8678L14.9156 23.8518L13.9623 25.2014C13.8874 25.3077 13.9629 25.4539 14.0924 25.4539H15.0118C15.0991 25.4539 15.1807 25.4112 15.2303 25.3395L18.292 20.9073C18.3653 20.8013 18.29 20.6562 18.1611 20.6562Z" fill="var(--fill-0, #28356A)"/>
<path id="Vector_9" fill-rule="evenodd" clip-rule="evenodd" d="M21.2299 18.8398H19.3167C19.1861 18.8398 19.0747 18.9351 19.0543 19.0648L18.2806 23.984C18.2653 24.0812 18.3402 24.1686 18.4378 24.1686H19.4197C19.5108 24.1686 19.5888 24.1019 19.6031 24.011L19.8227 22.6166C19.8428 22.4867 19.9545 22.3913 20.0851 22.3913H20.6904C21.9507 22.3913 22.6777 21.7798 22.868 20.568C22.9538 20.0378 22.8713 19.6213 22.6237 19.3296C22.3521 19.0092 21.8701 18.8398 21.2299 18.8398ZM21.4506 20.6365C21.3463 21.3248 20.8218 21.3248 20.3144 21.3248H20.0261L20.2288 20.0392C20.2408 19.9615 20.3074 19.9043 20.386 19.9043H20.5183C20.8635 19.9043 21.1896 19.9043 21.358 20.1018C21.4584 20.2196 21.4889 20.3946 21.4506 20.6365Z" fill="var(--fill-0, #298FC2)"/>
<path id="Vector_10" fill-rule="evenodd" clip-rule="evenodd" d="M26.9956 20.5767H26.08C26.0015 20.5767 25.9346 20.6339 25.9229 20.7116L25.8823 20.9685L25.8179 20.8754C25.6197 20.5867 25.1777 20.4902 24.7363 20.4902C23.724 20.4902 22.8598 21.2592 22.6914 22.3377C22.6041 22.8757 22.728 23.3902 23.0323 23.749C23.3121 24.0788 23.7109 24.2163 24.1861 24.2163C25.0018 24.2163 25.454 23.6903 25.454 23.6903L25.4132 23.9456C25.3979 24.0432 25.4728 24.1307 25.571 24.1307H26.3959C26.5265 24.1307 26.6378 24.0354 26.6582 23.9055L27.1536 20.7612C27.1687 20.6644 27.0937 20.5767 26.9956 20.5767ZM25.7187 22.3647C25.6309 22.8894 25.2149 23.2418 24.6851 23.2418C24.4197 23.2418 24.2066 23.1562 24.07 22.9941C23.9347 22.8331 23.8837 22.604 23.9262 22.3487C24.0093 21.8283 24.4311 21.4645 24.9529 21.4645C25.213 21.4645 25.4244 21.5512 25.5637 21.7147C25.7038 21.8799 25.7592 22.1105 25.7187 22.3647Z" fill="var(--fill-0, #298FC2)"/>
<path id="Vector_11" fill-rule="evenodd" clip-rule="evenodd" d="M27.9994 18.975L27.2143 23.9843C27.199 24.0814 27.2739 24.1688 27.3715 24.1688H28.1608C28.2921 24.1688 28.4033 24.0735 28.4234 23.9437L29.1977 19.0246C29.2132 18.9275 29.1381 18.8398 29.0405 18.8398H28.1567C28.0786 18.84 28.0115 18.8973 27.9994 18.975Z" fill="var(--fill-0, #298FC2)"/>
</g>
<defs>
<clipPath id="clip0_301_249">
<rect width="33.6" height="33.6" fill="white"/>
</clipPath>
</defs>
</svg>
