<svg preserveAspectRatio="none" width="100%" height="100%" overflow="visible" style="display: block;" viewBox="0 0 33.6 33.6" fill="none" xmlns="http://www.w3.org/2000/svg">
<g id="amex_svgrepo.com" clip-path="url(#clip0_301_238)">
<path id="Vector" d="M31.2827 5.50391H2.31714C1.19733 5.50391 0.289551 6.41169 0.289551 7.53149V26.0694C0.289551 27.1892 1.19733 28.097 2.31714 28.097H31.2827C32.4025 28.097 33.3102 27.1892 33.3102 26.0694V7.53149C33.3102 6.41169 32.4025 5.50391 31.2827 5.50391Z" fill="var(--fill-0, #006FCF)" stroke="var(--stroke-0, #F3F3F3)" stroke-width="0.57931"/>
<path id="Vector_2" fill-rule="evenodd" clip-rule="evenodd" d="M6.87227 21.9528V17.1824H12.2736L12.8531 17.8889L13.4517 17.1824H33.0571V21.6238C33.0571 21.6238 32.5444 21.948 31.9514 21.9528H21.0955L20.4421 21.2008V21.9528H18.3011V20.6691C18.3011 20.6691 18.0086 20.8483 17.3764 20.8483H16.6476V21.9528H13.4059L12.8272 21.2312L12.2397 21.9528H6.87227ZM0.579102 13.5871L1.79435 10.9316H3.896L4.58567 12.4191V10.9316H7.19819L7.6088 12.0067L8.00679 10.9316H19.7344V11.4721C19.7344 11.4721 20.3509 10.9316 21.3641 10.9316L25.1693 10.9441L25.8471 12.4121V10.9316H28.0334L28.6351 11.7749V10.9316H30.8415V15.702H28.6351L28.0585 14.856V15.702H24.8463L24.5232 14.95H23.6597L23.3419 15.702H21.1636C20.2917 15.702 19.7344 15.1725 19.7344 15.1725V15.702H16.4499L15.798 14.95V15.702H3.58466L3.26185 14.95H2.40106L2.08053 15.702H0.579102V13.5871ZM0.58537 15.0916L2.22448 11.5197H3.46713L5.10467 15.0916H4.01402L3.71315 14.3764H1.95495L1.65251 15.0916H0.58537ZM3.36684 13.6009L2.83092 12.351L2.29343 13.6009H3.36684ZM5.21749 15.091V11.5191L6.73398 11.5244L7.61598 13.8273L8.4769 11.5191H9.98125V15.091H9.02852V12.4591L8.01855 15.091H7.18301L6.17026 12.4591V15.091H5.21749ZM10.6331 15.091V11.5191H13.7421V12.3181H11.5959V12.9291H13.692V13.681H11.5959V14.3155H13.7421V15.091H10.6331ZM14.2937 15.0916V11.5197H16.4139C17.1164 11.5197 17.7459 11.9269 17.7459 12.6785C17.7459 13.3211 17.2152 13.735 16.7007 13.7756L17.9543 15.0916H16.79L15.6476 13.8227H15.2464V15.0916H14.2937ZM16.3355 12.3187H15.2464V13.0707H16.3497C16.5406 13.0707 16.7868 12.932 16.7868 12.6947C16.7868 12.5102 16.5968 12.3187 16.3355 12.3187ZM19.1076 15.091H18.1348V11.5191H19.1076V15.091ZM21.4143 15.091H21.2043C20.1883 15.091 19.5714 14.3408 19.5714 13.3198C19.5714 12.2735 20.1814 11.5191 21.4644 11.5191H22.5175V12.3651H21.4259C20.9051 12.3651 20.5367 12.7461 20.5367 13.3286C20.5367 14.0203 20.9579 14.3109 21.5647 14.3109H21.8154L21.4143 15.091ZM21.8483 15.0916L23.4874 11.5197H24.7301L26.3676 15.0916H25.277L24.9761 14.3764H23.2179L22.9155 15.0916H21.8483ZM24.6298 13.6009L24.0939 12.351L23.5564 13.6009H24.6298ZM26.4789 15.091V11.5191H27.6902L29.2368 13.7633V11.5191H30.1896V15.091H29.0174L27.4316 12.7881V15.091H26.4789ZM7.52416 21.3418V17.7699H10.6331V18.5689H8.48692V19.1799H10.583V19.9318H8.48692V20.5664H10.6331V21.3418H7.52416ZM22.7582 21.3418V17.7699H25.8671V18.5689H23.7209V19.1799H25.807V19.9318H23.7209V20.5664H25.8671V21.3418H22.7582ZM10.7538 21.3418L12.2676 19.5779L10.7177 17.7699H11.9181L12.8411 18.8876L13.7672 17.7699H14.9205L13.3911 19.5559L14.9076 21.3418H13.7075L12.8113 20.2418L11.9369 21.3418H10.7538ZM15.0208 21.3424V17.7706H17.1253C17.9888 17.7706 18.4933 18.2922 18.4933 18.9719C18.4933 19.7925 17.8501 20.2144 17.0015 20.2144H15.9986V21.3424H15.0208ZM17.0548 18.5783H15.9986V19.4008H17.0517C17.3299 19.4008 17.5249 19.2279 17.5249 18.9895C17.5249 18.7358 17.3289 18.5783 17.0548 18.5783ZM18.907 21.3418V17.7699H21.0272C21.7297 17.7699 22.3592 18.1771 22.3592 18.9287C22.3592 19.5713 21.8285 19.9851 21.314 20.0259L22.5676 21.3418H21.4033L20.2609 20.0728H19.8598V21.3418H18.907ZM20.9489 18.5689H19.8598V19.3208H20.9629C21.1539 19.3208 21.4002 19.1822 21.4002 18.9449C21.4002 18.7604 21.2101 18.5689 20.9489 18.5689ZM26.3084 21.3418V20.5664H28.2152C28.4973 20.5664 28.6195 20.4234 28.6195 20.2667C28.6195 20.1166 28.4977 19.9647 28.2152 19.9647H27.3535C26.6046 19.9647 26.1874 19.537 26.1874 18.8949C26.1874 18.3222 26.5694 17.7699 27.6824 17.7699H29.5377L29.1366 18.5736H27.5319C27.2252 18.5736 27.1307 18.7244 27.1307 18.8685C27.1307 19.0166 27.2475 19.1799 27.4818 19.1799H28.3844C29.2193 19.1799 29.5816 19.6238 29.5816 20.205C29.5816 20.8299 29.1779 21.3418 28.339 21.3418H26.3084ZM29.6656 21.3418V20.5664H31.5723C31.8545 20.5664 31.9766 20.4234 31.9766 20.2667C31.9766 20.1166 31.8549 19.9647 31.5723 19.9647H30.7107C29.9617 19.9647 29.5446 19.537 29.5446 18.8949C29.5446 18.3222 29.9266 17.7699 31.0396 17.7699H32.8949L32.4938 18.5736H30.8891C30.5824 18.5736 30.488 18.7244 30.488 18.8685C30.488 19.0166 30.6046 19.1799 30.839 19.1799H31.7416C32.5765 19.1799 32.9388 19.6238 32.9388 20.205C32.9388 20.8299 32.5351 21.3418 31.6961 21.3418H29.6656Z" fill="var(--fill-0, white)"/>
</g>
<defs>
<clipPath id="clip0_301_238">
<rect width="33.6" height="33.6" fill="white"/>
</clipPath>
</defs>
</svg>
