<svg preserveAspectRatio="none" width="100%" height="100%" overflow="visible" style="display: block;" viewBox="0 0 33.6 33.6" fill="none" xmlns="http://www.w3.org/2000/svg">
<g id="mastercard-full_svgrepo.com" clip-path="url(#clip0_301_262)">
<path id="Vector" d="M31.2827 5.50391H2.31714C1.19733 5.50391 0.289551 6.41169 0.289551 7.53149V26.0694C0.289551 27.1892 1.19733 28.097 2.31714 28.097H31.2827C32.4025 28.097 33.3102 27.1892 33.3102 26.0694V7.53149C33.3102 6.41169 32.4025 5.50391 31.2827 5.50391Z" fill="var(--fill-0, white)" stroke="var(--stroke-0, #F3F3F3)" stroke-width="0.57931"/>
<path id="Vector_2" fill-rule="evenodd" clip-rule="evenodd" d="M12.3097 23.1091V23.9646V24.8202H11.9347V24.6125C11.8158 24.7666 11.6353 24.8633 11.3901 24.8633C10.9064 24.8633 10.5273 24.4875 10.5273 23.9646C10.5273 23.4422 10.9064 23.0661 11.3901 23.0661C11.6353 23.0661 11.8158 23.1627 11.9347 23.3168V23.1091H12.3097ZM11.4367 23.4168C11.1121 23.4168 10.9135 23.6639 10.9135 23.9646C10.9135 24.2654 11.1121 24.5125 11.4367 24.5125C11.7468 24.5125 11.9562 24.2761 11.9562 23.9646C11.9562 23.6532 11.7468 23.4168 11.4367 23.4168ZM24.9815 23.9646C24.9815 23.6639 25.1801 23.4168 25.5047 23.4168C25.8153 23.4168 26.0242 23.6532 26.0242 23.9646C26.0242 24.2761 25.8153 24.5125 25.5047 24.5125C25.1801 24.5125 24.9815 24.2654 24.9815 23.9646ZM26.3782 22.4219V23.9646V24.8202H26.0028V24.6125C25.8838 24.7666 25.7034 24.8633 25.4581 24.8633C24.9745 24.8633 24.5954 24.4875 24.5954 23.9646C24.5954 23.4422 24.9745 23.0661 25.4581 23.0661C25.7034 23.0661 25.8838 23.1627 26.0028 23.3168V22.4219H26.3782ZM16.9644 23.3992C17.206 23.3992 17.3612 23.5496 17.4009 23.8143H16.506C16.546 23.5672 16.6972 23.3992 16.9644 23.3992ZM16.1128 23.9646C16.1128 23.4311 16.4663 23.0661 16.9718 23.0661C17.455 23.0661 17.787 23.4311 17.7907 23.9646C17.7907 24.0146 17.787 24.0614 17.7833 24.1077H16.5027C16.5568 24.4158 16.7769 24.5268 17.0185 24.5268C17.1915 24.5268 17.3757 24.4621 17.5203 24.3478L17.704 24.6235C17.4946 24.7989 17.2568 24.8633 16.997 24.8633C16.4808 24.8633 16.1128 24.5088 16.1128 23.9646ZM21.4997 23.9646C21.4997 23.6639 21.6984 23.4168 22.0229 23.4168C22.333 23.4168 22.5425 23.6532 22.5425 23.9646C22.5425 24.2761 22.333 24.5125 22.0229 24.5125C21.6984 24.5125 21.4997 24.2654 21.4997 23.9646ZM22.896 23.1091V23.9646V24.8202H22.521V24.6125C22.4016 24.7666 22.2216 24.8633 21.9763 24.8633C21.4926 24.8633 21.1135 24.4875 21.1135 23.9646C21.1135 23.4422 21.4926 23.0661 21.9763 23.0661C22.2216 23.0661 22.4016 23.1627 22.521 23.3168V23.1091H22.896ZM19.3819 23.9646C19.3819 24.4838 19.7462 24.8633 20.302 24.8633C20.5618 24.8633 20.7348 24.8059 20.9224 24.6592L20.7423 24.3584C20.6015 24.4588 20.4536 24.5125 20.2909 24.5125C19.9915 24.5088 19.7714 24.2941 19.7714 23.9646C19.7714 23.6352 19.9915 23.4205 20.2909 23.4168C20.4536 23.4168 20.6015 23.4705 20.7423 23.5709L20.9224 23.2701C20.7348 23.1234 20.5618 23.0661 20.302 23.0661C19.7462 23.0661 19.3819 23.4455 19.3819 23.9646ZM23.762 23.3168C23.8594 23.1665 24.0002 23.0661 24.2167 23.0661C24.2926 23.0661 24.4008 23.0804 24.4839 23.1128L24.3682 23.4635C24.2889 23.4311 24.2096 23.4205 24.1337 23.4205C23.8883 23.4205 23.7657 23.5778 23.7657 23.861V24.8202H23.3903V23.1091H23.762V23.3168ZM14.1644 23.2451C13.9839 23.1271 13.7353 23.0661 13.4611 23.0661C13.0242 23.0661 12.7429 23.2738 12.7429 23.6139C12.7429 23.893 12.9523 24.065 13.338 24.1187L13.5152 24.1437C13.7208 24.1724 13.8179 24.2261 13.8179 24.3228C13.8179 24.4551 13.6808 24.5305 13.4248 24.5305C13.165 24.5305 12.9775 24.4482 12.8511 24.3514L12.6744 24.6411C12.88 24.7915 13.1398 24.8633 13.4211 24.8633C13.9191 24.8633 14.2078 24.6305 14.2078 24.3047C14.2078 24.004 13.9806 23.8466 13.6052 23.793L13.4285 23.7675C13.2662 23.7462 13.1361 23.7143 13.1361 23.5995C13.1361 23.4742 13.2587 23.3992 13.4644 23.3992C13.6845 23.3992 13.8976 23.4815 14.0021 23.5459L14.1644 23.2451ZM18.5486 23.3168C18.6456 23.1665 18.7865 23.0661 19.0028 23.0661C19.0788 23.0661 19.187 23.0804 19.27 23.1128L19.1544 23.4635C19.0751 23.4311 18.9958 23.4205 18.9198 23.4205C18.6745 23.4205 18.5519 23.5778 18.5519 23.861V24.8202H18.1769V23.1091H18.5486V23.3168ZM15.8027 23.1091H15.1894V22.5899H14.8103V23.1091H14.4605V23.4492H14.8103V24.2298C14.8103 24.6268 14.9656 24.8633 15.4091 24.8633C15.5718 24.8633 15.7593 24.8133 15.8783 24.7309L15.77 24.4121C15.6581 24.4764 15.5355 24.5088 15.438 24.5088C15.2505 24.5088 15.1894 24.3941 15.1894 24.2224V23.4492H15.8027V23.1091ZM10.1957 23.7462V24.8202H9.81659V23.8679C9.81659 23.5778 9.69395 23.4168 9.43789 23.4168C9.18884 23.4168 9.0158 23.5746 9.0158 23.8717V24.8202H8.6367V23.8679C8.6367 23.5778 8.51076 23.4168 8.26172 23.4168C8.00526 23.4168 7.83928 23.5746 7.83928 23.8717V24.8202H7.46059V23.1091H7.83598V23.3201C7.97681 23.1198 8.15686 23.0661 8.34102 23.0661C8.60449 23.0661 8.79202 23.1808 8.91095 23.3705C9.06991 23.1304 9.29706 23.0624 9.5172 23.0661C9.93592 23.0698 10.1957 23.3418 10.1957 23.7462Z" fill="var(--fill-0, #231F20)"/>
<path id="Vector_3" d="M19.7234 20.2024H14.04V10.0684H19.7234V20.2024Z" fill="var(--fill-0, #FF5F00)"/>
<path id="Vector_4" d="M14.4008 15.1345C14.4008 13.0787 15.3709 11.2475 16.8815 10.0675C15.7769 9.20451 14.3826 8.68945 12.8674 8.68945C9.28035 8.68945 6.37256 11.575 6.37256 15.1345C6.37256 18.694 9.28035 21.5795 12.8674 21.5795C14.3826 21.5795 15.7769 21.0644 16.8815 20.2015C15.3709 19.0214 14.4008 17.1902 14.4008 15.1345Z" fill="var(--fill-0, #EB001B)"/>
<path id="Vector_5" d="M27.3908 15.1345C27.3908 18.694 24.483 21.5795 20.8959 21.5795C19.3807 21.5795 17.9865 21.0644 16.8813 20.2015C18.3924 19.0214 19.3625 17.1902 19.3625 15.1345C19.3625 13.0787 18.3924 11.2475 16.8813 10.0675C17.9865 9.20451 19.3807 8.68945 20.8959 8.68945C24.483 8.68945 27.3908 11.575 27.3908 15.1345Z" fill="var(--fill-0, #F79E1B)"/>
</g>
<defs>
<clipPath id="clip0_301_262">
<rect width="33.6" height="33.6" fill="white"/>
</clipPath>
</defs>
</svg>
