<svg preserveAspectRatio="none" width="100%" height="100%" overflow="visible" style="display: block;" viewBox="0 0 382.333 74.8044" fill="none" xmlns="http://www.w3.org/2000/svg">
<g id="Frame 26">
<path id="Star 1" d="M38.4411 0L47.0717 25.8443H75.0008L52.4057 41.8169L61.0362 67.6612L38.4411 51.6885L15.846 67.6612L24.4766 41.8169L1.88144 25.8443H29.8106L38.4411 0Z" fill="var(--fill-0, #E3BA40)"/>
<path id="Star 2" d="M115.323 0L123.954 25.8443H151.883L129.288 41.8169L137.918 67.6612L115.323 51.6885L92.728 67.6612L101.359 41.8169L78.7635 25.8443H106.693L115.323 0Z" fill="var(--fill-0, #E3BA40)"/>
<path id="Star 3" d="M191.167 0L199.564 25.8443H226.738L204.754 41.8169L213.151 67.6612L191.167 51.6885L169.182 67.6612L177.58 41.8169L155.595 25.8443H182.769L191.167 0Z" fill="var(--fill-0, #E3BA40)"/>
<path id="Star 4" d="M267.01 0L275.64 25.8443H303.57L280.974 41.8169L289.605 67.6612L267.01 51.6885L244.415 67.6612L253.045 41.8169L230.45 25.8443H258.379L267.01 0Z" fill="var(--fill-0, #E3BA40)"/>
<path id="Star 5" d="M343.892 0L352.523 25.8443H380.452L357.857 41.8169L366.487 67.6612L343.892 51.6885L321.297 67.6612L329.928 41.8169L307.332 25.8443H335.262L343.892 0Z" fill="var(--fill-0, #E3BA40)"/>
</g>
</svg>
