<svg preserveAspectRatio="none" width="100%" height="100%" overflow="visible" style="display: block;" viewBox="0 0 24.0458 24.0458" fill="none" xmlns="http://www.w3.org/2000/svg">
<g id="linkedin_svgrepo.com">
<path id="Vector" d="M6.51239 8.01532C7.3424 8.01532 8.01525 7.34246 8.01525 6.51245C8.01525 5.68244 7.3424 5.00959 6.51239 5.00959C5.68238 5.00959 5.00953 5.68244 5.00953 6.51245C5.00953 7.34246 5.68238 8.01532 6.51239 8.01532Z" fill="var(--fill-0, white)"/>
<path id="Vector_2" d="M5.00977 10.0195C5.00977 9.46615 5.45834 9.01758 6.01167 9.01758H7.01358C7.56692 9.01758 8.01549 9.46614 8.01549 10.0195V18.0348C8.01549 18.5881 7.56692 19.0367 7.01358 19.0367H6.01167C5.45834 19.0367 5.00977 18.5881 5.00977 18.0348V10.0195Z" fill="var(--fill-0, white)"/>
<path id="Vector_3" d="M11.021 19.0367H12.0229C12.5762 19.0367 13.0248 18.5881 13.0248 18.0348V13.5262C13.0248 12.0233 16.0305 11.0214 16.0305 13.0252V18.0352C16.0305 18.5885 16.479 19.0367 17.0324 19.0367H18.0343C18.5877 19.0367 19.0362 18.5881 19.0362 18.0348V12.0233C19.0362 10.0195 17.5334 9.01758 15.5295 9.01758C13.5257 9.01758 13.0248 10.5204 13.0248 10.5204V10.0195C13.0248 9.46614 12.5762 9.01758 12.0229 9.01758H11.021C10.4676 9.01758 10.019 9.46615 10.019 10.0195V18.0348C10.019 18.5881 10.4676 19.0367 11.021 19.0367Z" fill="var(--fill-0, white)"/>
<path id="Vector_4" fill-rule="evenodd" clip-rule="evenodd" d="M20.0382 1.00196C21.6982 1.00196 23.0439 2.34767 23.0439 4.00768V20.0382C23.0439 21.6983 21.6982 23.0439 20.0382 23.0439H4.00762C2.34761 23.0439 1.0019 21.6983 1.0019 20.0382V4.00768C1.0019 2.34767 2.34761 1.00196 4.00762 1.00196H20.0382ZM20.0382 3.00577C20.5915 3.00577 21.0401 3.45435 21.0401 4.00768V20.0382C21.0401 20.5916 20.5915 21.0401 20.0382 21.0401H4.00762C3.45429 21.0401 3.00571 20.5916 3.00571 20.0382V4.00768C3.00571 3.45435 3.45429 3.00577 4.00762 3.00577H20.0382Z" fill="var(--fill-0, white)"/>
</g>
</svg>
