<svg preserveAspectRatio="none" width="100%" height="100%" overflow="visible" style="display: block;" viewBox="0 0 24.0458 24.0458" fill="none" xmlns="http://www.w3.org/2000/svg">
<g id="instagram_svgrepo.com">
<path id="Vector" fill-rule="evenodd" clip-rule="evenodd" d="M12.0229 18.0344C15.3429 18.0344 18.0343 15.343 18.0343 12.0229C18.0343 8.70292 15.3429 6.0115 12.0229 6.0115C8.70284 6.0115 6.01143 8.70292 6.01143 12.0229C6.01143 15.343 8.70284 18.0344 12.0229 18.0344ZM12.0229 16.0306C14.2362 16.0306 16.0305 14.2363 16.0305 12.0229C16.0305 9.80959 14.2362 8.01532 12.0229 8.01532C9.80952 8.01532 8.01524 9.80959 8.01524 12.0229C8.01524 14.2363 9.80952 16.0306 12.0229 16.0306Z" fill="var(--fill-0, white)"/>
<path id="Vector_2" d="M18.0343 5.00959C17.481 5.00959 17.0324 5.45817 17.0324 6.0115C17.0324 6.56483 17.481 7.01341 18.0343 7.01341C18.5877 7.01341 19.0362 6.56483 19.0362 6.0115C19.0362 5.45817 18.5877 5.00959 18.0343 5.00959Z" fill="var(--fill-0, white)"/>
<path id="Vector_3" fill-rule="evenodd" clip-rule="evenodd" d="M1.65709 4.28427C1.00188 5.57019 1.00188 7.25356 1.00188 10.6203V13.4256C1.00188 16.7923 1.00188 18.4757 1.65709 19.7616C2.23343 20.8927 3.15306 21.8124 4.2842 22.3887C5.57011 23.0439 7.25348 23.0439 10.6202 23.0439H13.4255C16.7923 23.0439 18.4757 23.0439 19.7615 22.3887C20.8927 21.8124 21.8123 20.8927 22.3886 19.7616C23.0439 18.4757 23.0439 16.7923 23.0439 13.4256V10.6203C23.0439 7.25356 23.0439 5.57019 22.3886 4.28427C21.8123 3.15313 20.8927 2.2335 19.7615 1.65716C18.4757 1.00196 16.7923 1.00196 13.4255 1.00196H10.6202C7.25348 1.00196 5.57011 1.00196 4.2842 1.65716C3.15306 2.2335 2.23343 3.15313 1.65709 4.28427ZM13.4255 3.00577H10.6202C8.90378 3.00577 7.73696 3.00734 6.83507 3.08102C5.95656 3.15279 5.50731 3.28289 5.19391 3.44258C4.43982 3.82681 3.82673 4.4399 3.4425 5.19398C3.28282 5.50738 3.15272 5.95663 3.08094 6.83515C3.00726 7.73704 3.0057 8.90385 3.0057 10.6203V13.4256C3.0057 15.1421 3.00726 16.3088 3.08094 17.2107C3.15272 18.0893 3.28282 18.5386 3.4425 18.852C3.82673 19.606 4.43982 20.2191 5.19391 20.6033C5.50731 20.763 5.95656 20.8931 6.83507 20.9649C7.73696 21.0385 8.90378 21.0401 10.6202 21.0401H13.4255C15.142 21.0401 16.3087 21.0385 17.2107 20.9649C18.0892 20.8931 18.5385 20.763 18.8519 20.6033C19.6059 20.2191 20.219 19.606 20.6032 18.852C20.7629 18.5386 20.8931 18.0893 20.9648 17.2107C21.0384 16.3088 21.0401 15.1421 21.0401 13.4256V10.6203C21.0401 8.90385 21.0384 7.73704 20.9648 6.83515C20.8931 5.95663 20.7629 5.50738 20.6032 5.19398C20.219 4.4399 19.6059 3.82681 18.8519 3.44258C18.5385 3.28289 18.0892 3.15279 17.2107 3.08102C16.3087 3.00734 15.142 3.00577 13.4255 3.00577Z" fill="var(--fill-0, white)"/>
</g>
</svg>
