<svg preserveAspectRatio="none" width="100%" height="100%" overflow="visible" style="display: block;" viewBox="0 0 427.359 375" fill="none" xmlns="http://www.w3.org/2000/svg">
<g id="Group 2">
<circle id="Ellipse 18" cx="201.651" cy="187.5" r="187.5" fill="var(--fill-0, #AED5E3)"/>
<g id="avatar-thinking-4_svgrepo.com">
<path id="Vector" fill-rule="evenodd" clip-rule="evenodd" d="M193.297 89.3519C182.205 73.312 153.593 59.4307 135.704 63.7282C124.654 66.3828 126.533 77.4691 122.349 78.6599C118.165 79.8507 96.3469 87.7722 94.315 100.418C92.283 113.063 101.114 114.194 100.827 118.561C100.54 122.929 86.3993 137.876 92.0738 148.633C97.7484 159.39 105.036 159.418 105.456 164.036C105.876 168.653 112.353 208.659 125.698 221.245C139.042 233.832 168.671 279.998 176.613 272.028C184.555 264.058 183.205 264.686 189.154 261.062C193.27 258.555 202.874 256.433 207.788 243.85C212.475 231.847 202.163 214.068 203.045 206.494C203.433 203.159 215.135 199.331 212.17 184.489C209.204 169.647 197.666 155.442 197.857 147.098C197.95 142.963 205.024 143.03 207.097 131.394C208.721 122.276 201.498 101.21 193.299 89.353L193.297 89.3519Z" fill="var(--fill-0, #5C00BA)"/>
<path id="Vector_2" fill-rule="evenodd" clip-rule="evenodd" d="M81.9889 206.999C77.636 198.585 74.2073 189.79 74.5845 179.969C79.3402 179.026 83.0381 175.819 84.2683 167.625C83.8804 170.209 89.2011 171.592 91.4912 170.702C96.348 168.812 100.098 160.593 98.2241 158.14C99.881 155.603 102.076 150.877 99.3047 148.495C99.3047 148.495 101.678 141.136 98.347 139.556C95.2977 138.111 89.3129 138.326 89.3129 138.326C92.0983 135.352 94.3633 133.21 96.9258 130.534C98.7498 130.973 102.427 131.548 103.843 131.441C110.888 130.909 111.757 123.279 108.517 122.895C96.8316 121.515 94.7528 119.867 92.3016 121.349C90.4207 122.485 76.1265 136.237 74.7431 138.334C68.2911 148.084 56.312 165.816 54.1225 174.524C50.8113 187.694 58.693 254.904 77.1257 254.622C89.0011 254.439 98.5444 238.819 101.607 230.621C98.6125 219.584 90.9602 204.476 81.9899 206.997L81.9889 206.999Z" fill="var(--fill-0, #FFA775)"/>
<path id="Vector_3" d="M84.4886 167.627C84.4433 167.627 84.3986 167.622 84.355 167.61C84.2231 167.574 84.1103 167.488 84.0416 167.369C83.9735 167.251 83.9549 167.11 83.99 166.978C84.479 165.107 84.8014 163.196 84.9525 161.269C84.9605 161.175 84.9935 161.087 85.0483 161.01C85.1031 160.935 85.1776 160.875 85.2633 160.839C85.3489 160.802 85.4436 160.789 85.5362 160.801C85.6288 160.814 85.7161 160.851 85.789 160.91C87.0798 161.974 88.5403 162.814 90.1099 163.393C90.2387 163.439 90.3446 163.534 90.4037 163.657C90.4622 163.78 90.4702 163.923 90.4244 164.051C90.3786 164.18 90.2839 164.286 90.1605 164.345C90.0371 164.404 89.895 164.412 89.7662 164.366C88.3812 163.862 87.0755 163.161 85.8906 162.285C85.7171 163.959 85.4149 165.617 84.9861 167.244C84.9568 167.354 84.8919 167.451 84.802 167.52C84.712 167.589 84.6019 167.627 84.4886 167.627Z" fill="var(--fill-0, #29263B)"/>
<path id="Vector_4" fill-rule="evenodd" clip-rule="evenodd" d="M123.185 166.171C118.21 163.92 110.652 158.688 102.976 162.869C92.2001 168.737 81.7192 206.987 81.7192 206.987C86.4638 206.333 90.3117 213.851 93.6606 219.411C100.099 248.401 100.089 272.708 99.5943 296.663C124.204 309.231 161.427 308.995 182.186 296.655C182.186 296.655 181.914 268.471 183.612 259.639C185.203 251.367 199.493 240.431 199.493 240.431C199.493 240.431 214.3 188.725 201.621 173.622C193.928 164.459 182.462 164.995 168.473 170.258C149.521 177.385 130.308 169.395 123.189 166.173L123.185 166.171Z" fill="var(--fill-0, #FFC764)"/>
<path id="Vector_5" fill-rule="evenodd" clip-rule="evenodd" d="M119.776 106.42C119.776 106.42 108.558 138.107 114.144 147.88C119.731 157.653 135.581 159.966 135.581 159.966L134.321 170.022L122.904 166.071C119.605 178.472 122.668 192.631 130.802 204.869C141.547 196.805 154.153 185.47 169.023 170.154C169.023 170.154 158.851 174.481 156.938 170.25C155.024 166.02 162.83 148.795 162.83 148.795C174.982 156.86 184.547 138.304 169.097 136.27C171.975 124.559 165.614 123.692 165.325 117.984C164.957 110.664 171.928 110.018 171.771 102.161C159.373 106.087 155.907 92.1898 143.897 96.2022C133.832 99.5665 134.369 107.601 119.776 106.418V106.42Z" fill="var(--fill-0, #FFA775)"/>
<path id="Vector_6" fill-rule="evenodd" clip-rule="evenodd" d="M150.819 158.369C148.027 159.965 140.005 160.687 135.581 159.965L134.836 165.897C142.281 166.251 147.393 163.079 150.819 158.369Z" fill="var(--fill-0, #F08855)"/>
<path id="Vector_7" fill-rule="evenodd" clip-rule="evenodd" d="M168.256 233.398L164.457 246.4C164.457 246.4 114.098 246.526 110.276 246.979C98.7064 248.35 84.243 256.804 81.2474 259.063C77.5229 261.871 76.911 268.678 83.4555 270.23C86.2452 277.656 90.4012 287.941 94.23 288.895C99.555 290.225 100.6 285.54 100.674 282.191C104.055 285.457 117.334 284.6 119.942 275.603C128.015 276.765 176.664 277.643 183.006 273.032C189.349 268.421 199.321 240.232 199.321 240.232C191.57 233.694 180.134 231.747 168.256 233.4V233.398Z" fill="var(--fill-0, #FFA775)"/>
<path id="Vector_8" d="M168.668 251.699C168.593 251.699 168.519 251.683 168.45 251.652C168.382 251.62 168.322 251.574 168.274 251.517L163.631 246.02C163.588 245.968 163.555 245.908 163.534 245.844C163.513 245.78 163.506 245.711 163.512 245.644C163.518 245.577 163.536 245.511 163.568 245.451C163.598 245.391 163.641 245.337 163.693 245.293C163.745 245.25 163.804 245.217 163.869 245.196C163.934 245.176 164.001 245.168 164.069 245.174C164.136 245.179 164.202 245.199 164.262 245.229C164.322 245.261 164.376 245.303 164.419 245.355L169.062 250.852C169.125 250.927 169.166 251.018 169.179 251.116C169.192 251.213 169.177 251.312 169.136 251.401C169.094 251.49 169.028 251.566 168.945 251.619C168.862 251.671 168.766 251.699 168.668 251.699Z" fill="var(--fill-0, #29263B)"/>
<path id="Vector_9" d="M98.3457 158.659C98.2095 158.659 98.0791 158.605 97.9828 158.509C94.7925 155.384 90.994 152.949 86.8236 151.353C86.6964 151.302 86.5953 151.202 86.5416 151.075C86.4879 150.949 86.4868 150.807 86.5384 150.681C86.5895 150.553 86.689 150.452 86.8151 150.399C86.9412 150.345 87.0833 150.344 87.2104 150.395C91.5085 152.041 95.4219 154.553 98.7091 157.775C98.7815 157.847 98.8309 157.939 98.8512 158.039C98.8714 158.139 98.8613 158.243 98.8224 158.337C98.7836 158.432 98.7176 158.513 98.6325 158.57C98.5479 158.627 98.4479 158.657 98.3457 158.657V158.659Z" fill="var(--fill-0, #29263B)"/>
<path id="Vector_10" d="M99.4314 148.966C99.3617 148.966 99.2926 148.951 99.2287 148.924C94.697 146.971 89.8892 145.736 84.9771 145.263C84.9095 145.256 84.8446 145.236 84.785 145.203C84.7254 145.171 84.6727 145.128 84.6302 145.075C84.5871 145.022 84.5551 144.962 84.536 144.897C84.5168 144.832 84.5104 144.764 84.5174 144.697C84.5243 144.629 84.5445 144.564 84.5769 144.505C84.6089 144.445 84.6525 144.392 84.7052 144.35C84.7579 144.307 84.8185 144.275 84.8834 144.256C84.9478 144.237 85.0159 144.23 85.0835 144.237C90.0994 144.72 95.0088 145.981 99.6363 147.976C99.7454 148.023 99.8353 148.106 99.8906 148.211C99.9454 148.317 99.9624 148.437 99.9385 148.554C99.9146 148.67 99.8512 148.775 99.7592 148.85C99.6671 148.925 99.5517 148.966 99.433 148.966H99.4314Z" fill="var(--fill-0, #29263B)"/>
<path id="Vector_11" d="M83.0384 138.8C82.9043 138.795 82.7771 138.739 82.684 138.643C82.5909 138.546 82.5387 138.418 82.5387 138.284C82.5387 138.15 82.5909 138.021 82.684 137.925C82.7771 137.829 82.9043 137.772 83.0384 137.768L89.385 137.742C89.5217 137.741 89.6531 137.795 89.75 137.891C89.8473 137.988 89.9021 138.119 89.9027 138.255C89.9032 138.392 89.8495 138.524 89.7531 138.62C89.6568 138.718 89.526 138.773 89.3892 138.773L83.0421 138.8H83.0384Z" fill="var(--fill-0, #29263B)"/>
<path id="Vector_12" d="M93.5 219.553C93.3787 219.553 93.2617 219.51 93.1691 219.433C93.076 219.355 93.0137 219.247 92.9924 219.128C91.6229 211.245 103.735 190.414 104.252 189.532C104.285 189.472 104.33 189.42 104.385 189.379C104.438 189.337 104.5 189.306 104.566 189.289C104.632 189.271 104.701 189.267 104.768 189.276C104.836 189.285 104.901 189.308 104.96 189.342C105.018 189.376 105.07 189.422 105.111 189.476C105.152 189.531 105.182 189.593 105.199 189.659C105.216 189.725 105.22 189.794 105.21 189.861C105.2 189.928 105.177 189.993 105.142 190.052C105.017 190.265 92.703 211.438 94.0087 218.951C94.0321 219.086 94.0007 219.224 93.922 219.336C93.8432 219.448 93.7235 219.524 93.5889 219.548C93.5596 219.552 93.5298 219.554 93.5 219.553Z" fill="var(--fill-0, #29263B)"/>
<path id="Vector_13" d="M165.553 234.326C165.473 234.326 165.394 234.307 165.323 234.272C165.252 234.237 165.189 234.185 165.141 234.121C165.093 234.058 165.06 233.984 165.046 233.905C165.031 233.827 165.034 233.746 165.056 233.67C167.983 223.388 169.661 214.65 170.196 206.959C170.2 206.891 170.217 206.825 170.247 206.763C170.276 206.702 170.318 206.648 170.37 206.603C170.421 206.558 170.481 206.525 170.545 206.503C170.61 206.482 170.679 206.475 170.746 206.48C170.814 206.485 170.88 206.503 170.94 206.533C171.001 206.563 171.055 206.605 171.1 206.657C171.144 206.708 171.178 206.767 171.2 206.831C171.221 206.895 171.23 206.963 171.225 207.031C170.698 214.601 169.076 223.162 166.267 233.178L168.292 232.865C168.359 232.854 168.427 232.858 168.493 232.874C168.559 232.889 168.621 232.918 168.676 232.958C168.731 232.998 168.777 233.048 168.813 233.106C168.848 233.164 168.871 233.228 168.882 233.295C168.893 233.362 168.889 233.43 168.873 233.496C168.858 233.562 168.829 233.624 168.789 233.679C168.749 233.733 168.699 233.78 168.641 233.815C168.583 233.85 168.519 233.874 168.452 233.884L165.632 234.32C165.606 234.324 165.579 234.326 165.553 234.326Z" fill="var(--fill-0, #29263B)"/>
<path id="Vector_14" d="M128.823 134.324C128.764 134.324 128.705 134.314 128.649 134.294C128.467 134.228 124.201 132.667 124.314 129.914C124.417 127.375 128.703 120.238 131.054 118.162C131.105 118.118 131.164 118.083 131.228 118.061C131.292 118.039 131.36 118.03 131.428 118.034C131.495 118.038 131.561 118.056 131.622 118.086C131.683 118.116 131.737 118.157 131.782 118.208C131.827 118.258 131.861 118.317 131.883 118.382C131.905 118.446 131.914 118.514 131.91 118.581C131.906 118.649 131.888 118.715 131.859 118.775C131.829 118.837 131.787 118.891 131.737 118.936C129.614 120.81 125.436 127.715 125.344 129.956C125.277 131.615 127.958 132.949 128.997 133.323C129.111 133.364 129.207 133.444 129.268 133.549C129.33 133.654 129.351 133.777 129.331 133.896C129.31 134.016 129.248 134.125 129.154 134.202C129.062 134.281 128.944 134.324 128.823 134.324Z" fill="var(--fill-0, #29263B)"/>
<path id="Vector_15" d="M138.552 144.081C138.456 144.081 138.361 144.054 138.279 144.002C138.196 143.951 138.131 143.878 138.088 143.791C137.781 143.076 137.336 142.43 136.778 141.888C136.22 141.346 135.561 140.92 134.838 140.634C134.386 140.471 133.905 140.4 133.426 140.425C132.946 140.45 132.476 140.57 132.043 140.78C131.921 140.841 131.779 140.851 131.649 140.808C131.519 140.765 131.413 140.672 131.351 140.549C131.29 140.427 131.28 140.286 131.323 140.156C131.366 140.026 131.459 139.919 131.581 139.857C132.136 139.587 132.739 139.43 133.355 139.396C133.971 139.362 134.588 139.45 135.169 139.658C136.022 139.987 136.801 140.482 137.461 141.114C138.122 141.745 138.65 142.502 139.016 143.34C139.054 143.419 139.072 143.505 139.067 143.593C139.062 143.68 139.036 143.765 138.989 143.838C138.943 143.912 138.879 143.974 138.802 144.016C138.726 144.059 138.64 144.081 138.552 144.081Z" fill="var(--fill-0, #29263B)"/>
<path id="Vector_16" d="M158.279 115.438C158.009 115.438 157.747 115.349 157.532 115.187C157.317 115.024 157.161 114.796 157.088 114.536C156.396 112.081 155.363 110.458 154.02 109.711C152.838 109.054 151.327 109.004 149.402 109.558C149.088 109.642 148.755 109.6 148.473 109.441C148.19 109.281 147.981 109.017 147.891 108.706C147.802 108.395 147.838 108.06 147.992 107.775C148.146 107.49 148.406 107.276 148.716 107.181C151.27 106.444 153.46 106.568 155.223 107.548C157.192 108.642 158.579 110.708 159.471 113.864C159.522 114.048 159.531 114.242 159.495 114.43C159.459 114.617 159.381 114.795 159.266 114.947C159.15 115.099 159.001 115.223 158.83 115.308C158.659 115.393 158.47 115.438 158.279 115.438Z" fill="var(--fill-0, #29263B)"/>
<path id="Vector_17" d="M122.367 111.805C122.146 111.804 121.928 111.745 121.738 111.632C121.548 111.518 121.391 111.357 121.284 111.162C121.178 110.968 121.125 110.75 121.132 110.528C121.139 110.307 121.205 110.091 121.323 109.904C123.988 105.701 127.106 106.153 129.251 107.272C129.542 107.424 129.761 107.685 129.86 107.999C129.959 108.312 129.928 108.651 129.777 108.942C129.625 109.233 129.364 109.452 129.05 109.55C128.737 109.649 128.398 109.619 128.107 109.467C126.712 108.739 125.181 108.449 123.415 111.229C123.303 111.406 123.149 111.551 122.965 111.652C122.782 111.753 122.577 111.805 122.367 111.805Z" fill="var(--fill-0, #29263B)"/>
<path id="Vector_18" fill-rule="evenodd" clip-rule="evenodd" d="M151.565 114.115C152.786 114.427 153.271 116.662 152.648 119.102C152.024 121.543 150.525 123.271 149.305 122.959C148.086 122.646 147.599 120.411 148.223 117.971C148.847 115.531 150.345 113.802 151.565 114.115Z" fill="var(--fill-0, #29263B)"/>
<path id="Vector_19" fill-rule="evenodd" clip-rule="evenodd" d="M125.357 112.352C126.482 112.571 127.039 114.575 126.602 116.825C126.165 119.074 124.895 120.72 123.77 120.501C122.645 120.281 122.088 118.278 122.525 116.031C122.962 113.784 124.232 112.134 125.357 112.354V112.352Z" fill="var(--fill-0, #29263B)"/>
<path id="Vector_20" d="M167.077 146.291C166.972 146.291 166.869 146.263 166.778 146.211C166.641 146.131 166.54 146.001 166.499 145.848C166.458 145.694 166.479 145.531 166.558 145.393C168.213 142.52 170.838 141.18 174.361 141.408C174.44 141.411 174.518 141.43 174.59 141.464C174.662 141.499 174.726 141.547 174.779 141.606C174.833 141.665 174.873 141.735 174.899 141.81C174.925 141.885 174.936 141.965 174.931 142.044C174.926 142.123 174.905 142.201 174.869 142.272C174.834 142.343 174.785 142.407 174.725 142.458C174.664 142.511 174.594 142.55 174.519 142.575C174.443 142.599 174.363 142.608 174.284 142.602C171.209 142.401 169.023 143.513 167.595 145.991C167.543 146.082 167.468 146.158 167.376 146.211C167.285 146.263 167.182 146.291 167.077 146.291Z" fill="var(--fill-0, #494645)"/>
<path id="Vector_21" fill-rule="evenodd" clip-rule="evenodd" d="M56.2553 63.759C56.2218 56.8479 61.5904 50.8477 73.6073 50.6093C85.6242 50.3709 93.6453 57.8982 92.2087 63.7276C90.3352 71.332 77.2786 73.4672 77.4915 81.4893C77.5234 82.7099 69.5742 82.5998 69.5742 81.3787C69.3911 73.388 85.2486 69.5272 85.488 63.5781C85.6977 58.3637 81.4379 55.5358 73.6717 55.5358C68.2754 55.5358 63.7405 58.3153 63.3431 63.6967C63.2749 64.8343 56.2601 64.8982 56.2542 63.759H56.2553Z" fill="var(--fill-0, #E1B100)"/>
<path id="Vector_22" fill-rule="evenodd" clip-rule="evenodd" d="M73.4896 85.2812C76.5182 85.2812 78.9764 86.9094 78.9764 88.9159C78.9764 90.9223 76.5182 92.5499 73.4896 92.5499C70.4611 92.5499 68.0034 90.9218 68.0034 88.9159C68.0034 86.9099 70.4616 85.2812 73.4896 85.2812Z" fill="var(--fill-0, #E1B100)"/>
</g>
<g id="avatar-thinking-5_svgrepo.com">
<path id="Vector_23" fill-rule="evenodd" clip-rule="evenodd" d="M263.071 156.432C278.797 155.577 314.753 161.62 338.857 196.926C332.561 211.393 324.756 228.262 318.594 241.597C324.16 271.124 326.915 307.308 325.261 316.566C288.412 324.066 254.277 325.404 219.962 321.573C203.399 319.723 177.254 293.81 168.645 268.068C168.645 268.068 168.645 209.897 184.122 191.001C196.895 175.405 208.453 165.391 225.61 161.298C229.971 160.258 249.768 157.156 263.069 156.432H263.071Z" fill="var(--fill-0, #A957E1)"/>
<path id="Vector_24" fill-rule="evenodd" clip-rule="evenodd" d="M318.097 238.161C315.875 226.292 304.829 223.932 309.427 224.295C314.676 224.711 316.63 225.008 313.822 220.882C310.816 216.462 305.825 213.849 308.044 212.371C310.822 210.525 310.011 207.741 306.764 202.268C311.587 204.889 314.461 209.464 315.841 216.378C316.756 220.965 327.172 213.155 323.04 219.407C321.347 221.962 326.753 225.354 324.852 229.358C322.952 233.362 320.269 235.991 318.097 238.164V238.161Z" fill="var(--fill-0, #A046DE)"/>
<path id="Vector_25" fill-rule="evenodd" clip-rule="evenodd" d="M228.149 226.804C224.613 214.55 208.948 210.466 204.109 212.223C200.26 213.621 217.647 215.055 221.028 225.686C222.164 229.258 213.229 223.948 212.513 226.926C211.712 230.273 224.263 233.005 224.763 236.059C225.264 239.114 215.065 240.279 214 243.995C211.772 251.749 194.369 246.313 197.882 250.002C201.561 253.865 218.677 252.379 223.818 246.729C214.591 263.706 203.863 261.669 201.345 263.648C194.086 269.348 216.415 261.777 216.56 264.413C216.753 268.006 210.219 272.627 200.357 276.465C218.14 279.934 219.162 322.181 219.346 321.849C232.116 305.173 255.346 306.482 250.113 304.539C239.329 300.539 223.245 313.672 223.692 309.203C225.29 293.224 242.221 292.355 238.8 289.282C233.595 284.611 228.934 286.815 230.356 281.982C232.976 273.059 248.787 273.141 246.752 270.98C244.717 268.819 227.878 276.388 226.802 271.487C225.402 265.099 234.654 262.373 231.165 257.366C227.908 252.689 224.108 254.846 225.34 251.85C229.186 242.47 239.517 243.695 235.659 241.037C232.493 238.857 225.573 248.958 225.951 246.307C226.928 239.451 228.241 231.97 234.197 219.265C231.289 222.291 229.646 224.144 228.15 226.81L228.149 226.804Z" fill="var(--fill-0, #A046DE)"/>
<path id="Vector_26" fill-rule="evenodd" clip-rule="evenodd" d="M305.332 244.648C294.233 236.644 249.233 245.808 255.835 238.239C264.021 228.855 284.824 228.082 285.873 225.544C286.612 223.753 273.531 218.035 259.599 224.458C254.157 226.968 259.454 219.275 271.885 215.467C279.504 213.136 278.869 206.15 271.036 202.881C291.727 209.31 272.367 215.754 278.15 218.428C283.932 221.102 290.446 222.638 296.604 227.765C302.762 232.891 260.116 231.346 267.177 235.253C274.237 239.161 294.338 233.649 305.333 244.644L305.332 244.648Z" fill="var(--fill-0, #A046DE)"/>
<path id="Vector_27" fill-rule="evenodd" clip-rule="evenodd" d="M311.078 90.1088C317.998 102.305 327.066 135.429 312.129 151.226C303.723 160.119 289.166 161.295 289.22 161.411C296.793 177.559 289.576 195.813 269.785 196.002C252.123 196.168 231.739 177.909 225.562 161.277C233.085 159.666 242.221 158.761 242.769 155.138C243.592 149.698 242.579 147.927 242.379 147.855C219.303 148.827 225.117 122.185 239.621 129.133C238.908 116.182 235.537 89.9359 244.38 82.4888C263.229 66.6158 304.083 77.7882 311.075 90.1082L311.078 90.1088Z" fill="var(--fill-0, #FFBF9B)"/>
<path id="Vector_28" fill-rule="evenodd" clip-rule="evenodd" d="M223.019 271.351C202.752 280.25 175.531 276.216 168.647 268.068C168.748 281.719 169.375 297.811 169.73 313.638C172.952 327.158 197.415 330.62 219.965 321.573C219.698 309.323 221.569 284.77 223.019 271.351Z" fill="var(--fill-0, #FFBF9B)"/>
<path id="Vector_29" fill-rule="evenodd" clip-rule="evenodd" d="M347.013 163.742C350.604 169.673 356.582 186.305 359.355 199.515C362.128 212.724 366.676 262.687 338.404 263.971C315.074 265.03 317.932 237.453 317.932 237.453C322.297 228.78 325.379 221.858 327.835 207.677C322.325 207.526 319.232 203.31 317.293 197.157C306.886 201.353 296.208 182.938 308.778 175.701C308.288 171.792 310.794 167.898 316.737 167.407C316.175 164.088 317.918 160.701 324.884 160.281C318.794 150.593 307.708 151.802 310.07 145.273C312.398 138.841 332.621 139.983 347.013 163.744V163.742Z" fill="var(--fill-0, #FFBF9B)"/>
<path id="Vector_30" d="M335.711 166.918C335.633 166.918 335.556 166.899 335.486 166.864C335.416 166.829 335.355 166.777 335.309 166.714C332.679 163.413 328.855 161.28 324.664 160.777C324.599 160.772 324.534 160.753 324.476 160.723C324.418 160.693 324.366 160.651 324.323 160.602C324.281 160.552 324.248 160.493 324.228 160.431C324.209 160.368 324.201 160.302 324.206 160.237C324.218 160.104 324.281 159.982 324.382 159.896C324.432 159.853 324.49 159.821 324.553 159.801C324.615 159.781 324.681 159.774 324.747 159.779C329.221 160.317 333.305 162.594 336.114 166.119C336.153 166.172 336.182 166.232 336.197 166.296C336.213 166.36 336.216 166.426 336.207 166.491C336.196 166.556 336.174 166.619 336.14 166.675C336.106 166.732 336.062 166.78 336.009 166.82C335.923 166.884 335.818 166.918 335.711 166.918Z" fill="var(--fill-0, #29263B)"/>
<path id="Vector_31" d="M327.979 172.045C327.859 172.046 327.744 172.004 327.654 171.926C324.215 168.983 320.492 167.619 316.595 167.885C316.529 167.89 316.462 167.883 316.399 167.862C316.336 167.842 316.277 167.809 316.226 167.766C316.176 167.722 316.135 167.669 316.105 167.61C316.075 167.55 316.057 167.486 316.053 167.419C316.048 167.352 316.057 167.286 316.079 167.223C316.101 167.16 316.135 167.102 316.179 167.052C316.223 167.003 316.277 166.963 316.337 166.933C316.397 166.905 316.462 166.888 316.529 166.885C320.7 166.608 324.66 168.047 328.304 171.165C328.382 171.231 328.437 171.32 328.464 171.419C328.489 171.518 328.484 171.623 328.448 171.718C328.413 171.815 328.349 171.897 328.265 171.956C328.181 172.014 328.081 172.045 327.979 172.045Z" fill="var(--fill-0, #29263B)"/>
<path id="Vector_32" d="M319.372 177.868C319.267 177.868 319.165 177.835 319.079 177.773C317.393 176.556 313.045 173.956 309.074 176.076C308.957 176.139 308.82 176.152 308.693 176.114C308.566 176.075 308.459 175.988 308.397 175.87C308.335 175.753 308.321 175.616 308.359 175.489C308.398 175.362 308.485 175.255 308.603 175.193C311.753 173.512 315.782 174.156 319.666 176.961C319.751 177.023 319.815 177.111 319.848 177.211C319.881 177.312 319.881 177.42 319.849 177.522C319.816 177.622 319.752 177.71 319.667 177.772C319.581 177.835 319.478 177.868 319.372 177.868Z" fill="var(--fill-0, #29263B)"/>
<path id="Vector_33" d="M317.237 197.496C317.126 197.496 317.019 197.459 316.931 197.391C316.843 197.324 316.781 197.229 316.753 197.122C315.386 191.892 313.365 189.433 310.191 189.144C310.059 189.132 309.937 189.068 309.852 188.966C309.767 188.863 309.726 188.732 309.738 188.6C309.75 188.467 309.815 188.346 309.916 188.261C310.018 188.176 310.15 188.135 310.282 188.147C315.021 188.579 316.797 193.332 317.722 196.869C317.755 196.997 317.736 197.134 317.669 197.248C317.603 197.363 317.493 197.446 317.365 197.48C317.323 197.491 317.28 197.497 317.237 197.496Z" fill="var(--fill-0, #29263B)"/>
<path id="Vector_34" d="M292.158 173.469C275.146 172.805 264.445 165.687 256.973 155.27C266.517 160.193 277.465 162.085 289.22 161.413C291.401 166.358 291.951 169.26 292.158 173.469Z" fill="var(--fill-0, #EA9465)"/>
<path id="Vector_35" d="M302.856 130.91C302.782 130.91 302.709 130.893 302.642 130.862C302.522 130.805 302.43 130.702 302.385 130.578C302.341 130.452 302.348 130.315 302.404 130.195C303.697 127.461 303.963 125.226 303.217 123.355C302.435 121.389 300.532 119.841 297.4 118.621C297.339 118.598 297.283 118.562 297.235 118.516C297.188 118.471 297.15 118.416 297.123 118.356C297.097 118.296 297.082 118.231 297.081 118.165C297.08 118.1 297.091 118.035 297.115 117.973C297.139 117.912 297.175 117.856 297.22 117.808C297.266 117.761 297.32 117.723 297.38 117.697C297.44 117.67 297.505 117.656 297.57 117.654C297.636 117.653 297.702 117.664 297.763 117.688C301.169 119.014 303.257 120.746 304.148 122.984C304.99 125.098 304.707 127.668 303.31 130.623C303.27 130.709 303.205 130.782 303.125 130.833C303.044 130.883 302.951 130.91 302.856 130.91Z" fill="var(--fill-0, #29263B)"/>
<path id="Vector_36" d="M281.112 142.418C281.017 142.418 280.923 142.392 280.843 142.341C280.763 142.29 280.699 142.217 280.659 142.131C280.619 142.045 280.603 141.949 280.616 141.854C280.627 141.761 280.666 141.671 280.727 141.598C283.142 138.686 285.526 137.151 287.814 137.031C289.609 136.936 291.358 137.705 293.009 139.314C293.099 139.408 293.149 139.533 293.149 139.663C293.148 139.793 293.097 139.919 293.006 140.011C292.915 140.105 292.792 140.159 292.662 140.162C292.531 140.166 292.405 140.119 292.309 140.031C290.867 138.625 289.374 137.951 287.866 138.031C285.87 138.136 283.726 139.551 281.498 142.238C281.451 142.294 281.392 142.34 281.325 142.372C281.258 142.402 281.186 142.418 281.112 142.418Z" fill="var(--fill-0, #29263B)"/>
<path id="Vector_37" d="M267.028 107.689C266.728 107.689 266.433 107.62 266.164 107.487C265.894 107.354 265.66 107.161 265.477 106.923C265.295 106.685 265.17 106.408 265.112 106.114C265.054 105.819 265.064 105.516 265.142 105.226C266.161 101.452 267.947 98.8871 270.45 97.6039C272.964 96.3154 276.112 96.3659 279.808 97.7543C280.048 97.8446 280.268 97.9813 280.455 98.156C280.642 98.3314 280.793 98.5418 280.899 98.7753C281.006 99.0089 281.064 99.2609 281.073 99.5171C281.082 99.7732 281.039 100.029 280.949 100.269C280.859 100.509 280.723 100.729 280.547 100.916C280.372 101.103 280.162 101.254 279.928 101.36C279.694 101.467 279.442 101.525 279.186 101.534C278.93 101.542 278.675 101.5 278.434 101.41C275.812 100.424 273.725 100.313 272.232 101.079C270.75 101.839 269.633 103.575 268.913 106.244C268.801 106.659 268.556 107.025 268.215 107.286C267.875 107.547 267.458 107.688 267.028 107.689Z" fill="var(--fill-0, #B18B00)"/>
<path id="Vector_38" d="M308.747 105.22C308.343 105.22 307.949 105.095 307.618 104.861C307.288 104.628 307.039 104.298 306.905 103.917C305.855 100.945 304.086 100.014 300.792 100.714C300.54 100.771 300.279 100.777 300.024 100.732C299.77 100.688 299.527 100.593 299.309 100.453C299.092 100.314 298.904 100.133 298.757 99.9199C298.61 99.7077 298.507 99.4676 298.453 99.215C298.399 98.9624 298.396 98.7015 298.444 98.4477C298.492 98.1933 298.59 97.9514 298.732 97.7357C298.874 97.5199 299.057 97.3345 299.271 97.1901C299.486 97.045 299.727 96.9446 299.98 96.8941C305.21 95.7844 308.874 97.7624 310.588 102.617C310.692 102.912 310.723 103.227 310.68 103.536C310.637 103.845 310.52 104.14 310.34 104.395C310.159 104.65 309.92 104.858 309.643 105.001C309.365 105.145 309.058 105.22 308.745 105.22H308.747Z" fill="var(--fill-0, #B18B00)"/>
<path id="Vector_39" fill-rule="evenodd" clip-rule="evenodd" d="M275.309 106.519C273.705 106.519 272.407 108.941 272.407 111.923C272.407 114.906 273.707 117.327 275.309 117.327C276.912 117.327 278.212 114.906 278.212 111.923C278.212 108.941 276.91 106.519 275.309 106.519Z" fill="var(--fill-0, #0014FF)"/>
<path id="Vector_40" fill-rule="evenodd" clip-rule="evenodd" d="M305.578 104.697C303.978 104.697 302.676 107.119 302.676 110.101C302.676 113.083 303.978 115.505 305.578 115.505C307.179 115.505 308.481 113.083 308.481 110.101C308.481 107.119 307.181 104.697 305.578 104.697Z" fill="var(--fill-0, #0014FF)"/>
<path id="Vector_41" d="M239.455 143.554C239.332 143.554 239.213 143.509 239.121 143.427C239.029 143.345 238.971 143.232 238.957 143.109C238.586 139.766 237.325 135.804 230.815 134.828C230.684 134.808 230.565 134.737 230.487 134.63C230.408 134.523 230.375 134.39 230.394 134.258C230.414 134.127 230.485 134.009 230.591 133.93C230.698 133.851 230.832 133.818 230.964 133.838C238.228 134.926 239.572 139.587 239.951 142.998C239.966 143.13 239.927 143.263 239.845 143.367C239.762 143.47 239.641 143.537 239.509 143.551C239.492 143.553 239.473 143.554 239.455 143.554Z" fill="var(--fill-0, #29263B)"/>
<path id="Vector_42" fill-rule="evenodd" clip-rule="evenodd" d="M239.607 129.157C250.074 113.102 252.764 98.3421 247.324 85.1031C283.82 98.156 317.798 102.937 330.863 89.1488C336.279 83.4342 338.604 68.5044 331.264 59.2428C329.379 62.7441 322.843 63.3806 316.564 61.5471C297.496 55.9793 252.883 30.9095 228.187 73.7643C212.403 88.8802 215.862 110.748 226.912 136.224C227.472 129.914 232.969 125.853 239.605 129.157H239.607Z" fill="var(--fill-0, #E1B100)"/>
<path id="Vector_43" d="M307.996 94.5209C307.797 94.5212 307.604 94.4443 307.46 94.3061C307.315 94.1681 307.229 93.9795 307.22 93.7798C307.211 93.58 307.28 93.3846 307.412 93.2342C307.543 93.0838 307.728 92.9901 307.927 92.9726C320.923 91.7905 327.145 85.7538 326.946 74.5178C326.944 74.4159 326.962 74.3145 326.999 74.2196C327.036 74.1247 327.092 74.038 327.163 73.9646C327.233 73.8913 327.318 73.8326 327.412 73.7921C327.505 73.7516 327.605 73.73 327.708 73.7285H327.722C327.925 73.7285 328.12 73.8084 328.265 73.951C328.409 74.0936 328.492 74.2874 328.495 74.4904C328.705 86.527 321.831 93.265 308.063 94.5197C308.042 94.5205 308.02 94.5209 307.996 94.5209ZM298.368 92.4448C298.178 92.4502 297.994 92.3857 297.849 92.2638C297.704 92.1417 297.608 91.9707 297.582 91.7832C297.554 91.5957 297.597 91.4047 297.702 91.2466C297.806 91.0885 297.965 90.9743 298.148 90.9257C308.405 87.8827 313.601 82.5015 314.025 74.4738C314.029 74.3717 314.054 74.2715 314.097 74.179C314.141 74.0865 314.202 74.0037 314.279 73.9354C314.355 73.8671 314.443 73.8146 314.54 73.7812C314.636 73.7476 314.739 73.7338 314.841 73.7404C314.942 73.7454 315.042 73.7705 315.134 73.8143C315.226 73.8581 315.309 73.9196 315.377 73.9954C315.445 74.0712 315.498 74.1598 315.532 74.2559C315.565 74.3521 315.58 74.454 315.574 74.5558C315.115 83.1981 309.4 89.2057 298.589 92.4128C298.518 92.4339 298.444 92.4447 298.37 92.4448H298.368ZM288.502 90.5025C288.303 90.5125 288.109 90.4456 287.959 90.3158C287.808 90.186 287.713 90.0033 287.694 89.8056C287.675 89.6078 287.733 89.4103 287.855 89.254C287.978 89.0976 288.156 88.9946 288.353 88.9662C292.363 88.1745 295.54 85.4346 296.447 81.9845C296.925 79.9896 296.731 77.8924 295.895 76.0191C295.813 75.8299 295.809 75.6159 295.885 75.4243C295.961 75.2325 296.11 75.0788 296.299 74.9968C296.488 74.9149 296.702 74.9114 296.894 74.9872C297.085 75.063 297.239 75.2118 297.321 75.401C298.296 77.5939 298.516 80.0475 297.95 82.3791C296.893 86.3998 293.245 89.5825 288.656 90.4883C288.605 90.4983 288.553 90.503 288.501 90.5025H288.502Z" fill="var(--fill-0, #B18B00)"/>
<path id="Vector_44" fill-rule="evenodd" clip-rule="evenodd" d="M350.074 55.4609C350.039 48.0316 355.809 41.5825 368.726 41.3263C381.643 41.0701 390.265 49.1609 388.722 55.427C386.708 63.6004 372.675 65.8963 372.902 74.519C372.937 75.8307 364.392 75.7124 364.392 74.4001C364.195 65.8107 381.24 61.661 381.498 55.2665C381.723 49.6607 377.144 46.6213 368.796 46.6213C362.996 46.6213 358.121 49.6096 357.694 55.3937C357.621 56.6163 350.081 56.6846 350.074 55.4609Z" fill="var(--fill-0, #E1B100)"/>
<path id="Vector_45" fill-rule="evenodd" clip-rule="evenodd" d="M368.599 78.5938C371.855 78.5938 374.498 80.3441 374.498 82.501C374.498 84.6578 371.855 86.407 368.599 86.407C365.344 86.407 362.702 84.6566 362.702 82.501C362.702 80.3453 365.345 78.5938 368.599 78.5938Z" fill="var(--fill-0, #E1B100)"/>
</g>
</g>
</svg>
